<?xml version="1.0" standalone="no"?>
<!DOCTYPE svg PUBLIC "-//W3C//DTD SVG 1.1//EN" "http://www.w3.org/Graphics/SVG/1.1/DTD/svg11.dtd" >
<svg xmlns="http://www.w3.org/2000/svg">
<metadata>Generated by IcoMoon</metadata>
<defs>
<font id="icomoon" horiz-adv-x="1024">
<font-face units-per-em="1024" ascent="960" descent="-64" />
<missing-glyph horiz-adv-x="1024" />
<glyph unicode="&#x20;" horiz-adv-x="512" d="" />
<glyph unicode="&#xe900;" glyph-name="arr_next" horiz-adv-x="585" d="M569.255 487.956l-443.234 455.685c-10.251 10.548-23.936 16.359-38.528 16.359s-28.276-5.811-38.528-16.359l-32.641-33.55c-21.24-21.862-21.24-57.394 0-79.222l372.194-382.656-372.607-383.078c-10.251-10.547-15.912-24.613-15.912-39.607 0-15.009 5.66-29.067 15.912-39.629l32.641-33.536c10.26-10.555 23.936-16.362 38.528-16.362s28.276 5.808 38.528 16.362l443.647 456.098c10.276 10.582 15.92 24.709 15.887 39.728 0.032 15.077-5.612 29.196-15.887 39.769z" />
<glyph unicode="&#xe901;" glyph-name="arr_prev" horiz-adv-x="585" d="M15.887 487.956l443.234 455.685c10.251 10.548 23.936 16.359 38.528 16.359s28.276-5.811 38.528-16.359l32.641-33.55c21.24-21.862 21.24-57.394 0-79.222l-372.194-382.656 372.607-383.078c10.251-10.547 15.911-24.613 15.911-39.607 0-15.009-5.661-29.067-15.911-39.629l-32.641-33.536c-10.26-10.555-23.936-16.362-38.528-16.362s-28.276 5.808-38.528 16.362l-443.647 456.098c-10.276 10.582-15.92 24.709-15.887 39.728-0.032 15.077 5.612 29.196 15.887 39.769z" />
<glyph unicode="&#xe902;" glyph-name="guarant_icon1" horiz-adv-x="1132" d="M324.923 349.538h561.231v-19.692h-561.231v19.692zM878.051 505.463c-3.951 23.648-14.389 44.411-26.959 58.544-13.538 14.3-30.18 22.136-47.674 19.131l-35.959-5.844c-8.262-1.585-14.914-5.443-21.732-10.272-2.463-8.569-7.837-16.641-16.762-22.109-0.165-0.971-1.136-0.805-1.302-1.775-8.003-17.612-10.846-40.1-7.061-64.72 3.951-23.649 14.389-44.411 26.792-59.515 1.61-2.273 3.385-3.575 6.131-5.043 3.716-1.633 6.462-3.102 9.208-4.57s5.326-3.906 7.905-6.345c8.404-3.433 17.138-4.925 25.4-3.34l35.959 5.844c17.495 3.005 31.628 15.574 39.631 33.185 7.364 19.719 10.207 42.207 6.422 66.827zM861.617 444.342c-6.701-15.837-18.397-25.824-31.676-27.552l-35.959-5.845c-13.28-1.727-27.342 3.672-39.106 16.67s-20.592 31.486-24.709 54.165c-3.147 22.512-0.635 43.060 6.065 58.897s18.396 25.824 31.676 27.552l35.959 5.844c13.28 1.727 27.341-3.672 39.105-16.669s20.592-31.486 24.71-54.165c4.283-21.708 0.635-43.060-6.065-58.897zM838.238 547.225c-9.018 11.529-20.807 18.537-34.253 15.84-12.31-1.892-22.064-12.213-27.463-26.273-5.232-13.090-6.276-30.892-3.436-49.357s10.058-34.681 19.076-46.211c9.018-11.529 20.972-17.567 34.253-15.84 12.31 1.892 22.063 12.213 27.462 26.273s6.276 30.892 3.437 49.357c-2.673 19.435-8.922 35.486-19.076 46.211zM844.668 456.226c-3.931-11.315-11.080-18.084-19.342-19.67s-16.499 2.818-24.879 12.241c-7.408 9.256-13.822 24.337-16.992 40.861s-1.489 32.218 3.578 44.338c4.901 11.149 11.081 18.084 19.342 19.67s16.5-2.818 24.713-13.212c8.38-9.422 13.823-24.336 16.993-40.86 2.201-16.358 0.518-32.053-3.413-43.368zM784.029 405.023c-8.663 1.48-16.851 5.742-22.638 12.458l-355.279-50.039c-26.16 9.241-45.131 31.573-48.553 57.931-3.581 25.431 8.555 50.084 29.855 64.583l354.305 55.933c2.547 9.111 8.786 16.636 17.595 21.812l-381.721-59.84c-28.987-18.912-44.317-50.658-40.078-83.837 4.080-34.107 29.8-63.319 64.466-74.968l1.925-0.329 385.741 54.381c-0.962 0.164-2.888 0.493-5.617 1.914zM679.385 398.769v-68.923h-19.692v68.923h19.692zM669.751 326.807c0.795-0.314 1.659-1.211 1.979-1.901l18.332-39c0.819-1.806 0.152-3.944-1.785-4.908-1.731-0.861-4.090 0.032-4.908 1.785l-14.678 31.292-34.85-88.196c-0.749-1.896-2.894-2.826-4.79-2.077s-2.826 2.894-2.077 4.79l34.849 88.196-32.103-12.807c-1.795-0.72-4.048 0.273-4.802 2.053-0.797 1.88 0.207 4.071 2.052 4.802l40.038 15.935c1.111 0.494 1.932 0.341 2.743 0.035zM667.070 411.212c0.784 0.341 1.618 1.267 1.914 1.967l17.013 39.592c0.758 1.832 0.020 3.947-1.949 4.845-1.759 0.802-4.086-0.169-4.845-1.949l-13.621-31.767-37.788 86.978c-0.812 1.87-2.987 2.727-4.857 1.914s-2.727-2.986-1.915-4.857l37.788-86.977-32.515 11.723c-1.818 0.659-4.037-0.408-4.73-2.212-0.733-1.905 0.344-4.063 2.212-4.731l40.55-14.583c1.126-0.457 1.941-0.276 2.742 0.056z" />
<glyph unicode="&#xe903;" glyph-name="guarant_icon2" horiz-adv-x="1132" d="M777.846 440.125v-64c0-9.846-7.877-18.708-17.723-20.677l-297.354-54.154c5.908-2.954 9.846-8.862 10.831-14.769 0.985-1.969 1.969-3.938 2.954-6.892l287.508 52.185c21.662 3.938 36.431 21.662 36.431 43.323v64h-22.646v0.985zM785.723 722.706c-9.846 8.862-23.631 11.815-36.431 9.846l-357.415-64.985c-21.662-3.938-36.431-22.646-36.431-43.323v-205.785c5.908 2.954 12.8 5.908 20.677 5.908 0.985 0 1.969 0 2.954 0v200.862c0 9.846 7.877 18.708 17.723 20.677l357.415 64.985c6.892 0.985 11.815 0 17.723-3.938 3.938-3.938 7.877-9.846 7.877-16.738v-128.985h23.631v128.985c-1.969 10.831-7.877 24.615-17.723 32.492zM288.492 276.676c-1.969 9.846 0 20.677 1.969 30.523 2.954 9.846 7.877 18.708 14.769 27.569l108.308 111.262c3.938 4.923 8.862 5.908 14.769 6.892s9.846-0.985 15.754-3.938l45.292-32.492c3.938-2.954 7.877-7.877 8.862-12.8 1.969-4.923 0.985-10.831-1.969-15.754l-42.338-85.662 24.615-8.862c0 0 0 0 0.985-0.985 0 0 0 0 0.985-0.985 0 0 0 0 0.985-0.985l4.923-4.923c0 0-0.985-0.985 0-0.985l-9.846-13.785 61.046-24.615c8.862-2.954 14.769-7.877 20.677-14.769 4.923-6.892 5.908-16.738 4.923-24.615 17.723-6.892 24.615 0 34.462 10.831 10.831 11.815 24.615 25.6 53.169 21.662 0.985 0.985 0.985 0 2.954-0.985 0.985-0.985 0.985 0 1.969-0.985s0.985-1.969 0.985-1.969c0.985-0.985 0.985-1.969 0-1.969 0.985-0.985 0-0.985-0.985-2.954-0.985-0.985 0-0.985-0.985-1.969s-1.969-0.985-1.969-0.985c-0.985-0.985-0.985 0-1.969 0-23.631 1.969-32.492-7.877-43.323-17.723-10.831-10.831-21.662-23.631-47.262-13.785-0.985-0.985-0.985-1.969-0.985-1.969 0-0.985-1.969-2.954-2.954-3.938-3.938-4.923-8.862-6.892-12.8-7.877-4.923-1.969-9.846-1.969-15.754-0.985l-170.338 34.462h-0.985c-14.769 2.954-29.538 11.815-38.4 22.646-20.677 7.877-27.569 22.646-29.538 38.4zM480.492 382.030l4.923 9.846c0.985 1.969 0.985 3.938 0.985 7.877 0 1.969-2.954 4.923-4.923 5.908l-45.292 32.492c-1.969 0.985-4.923 1.969-6.892 0.985-1.969 0-3.938-0.985-6.892-3.938l-6.892-7.877 64.985-45.292zM466.708 282.584l-16.738 6.892-4.923-10.831 15.754-6.892 5.908 10.831zM520.862 190.030c2.954-0.985 5.908 0 9.846 0 2.954 0.985 5.908 2.954 7.877 5.908s3.938 5.908 5.908 9.846c0 3.938 0.985 7.877 0 10.831-0.985 3.938-2.954 6.892-6.892 9.846-2.954 1.969-6.892 4.923-9.846 5.908l-0.985 0.985-89.6 35.446-9.846-19.692c-0.985-1.969-1.969-2.954-2.954-4.923-8.862-11.815-19.692-21.662-33.477-26.585l129.969-27.569zM376.123 224.491c8.862 1.969 16.738 4.923 23.631 9.846s13.785 11.815 16.738 18.708l58.092 117.169-67.938 48.246-91.569-93.538c-7.877-10.831-12.8-22.646-14.769-35.446-0.985-12.8 1.969-25.6 8.862-37.415 6.892-10.831 16.738-19.692 29.538-25.6 10.831-3.938 25.6-4.923 37.415-1.969zM315.077 298.337c4.923 6.892 11.815 12.8 18.708 14.769 7.877 2.954 16.738 3.939 24.615 1.97s15.754-6.893 20.677-11.816c5.908-5.908 9.846-13.784 11.815-21.661s0-16.738-2.954-24.615c-2.954-7.877-8.862-13.785-15.754-18.708s-14.769-6.892-23.631-5.908c-8.862 0-15.754 2.953-23.631 6.891-8.862 5.908-15.754 15.755-16.738 27.57-2.954 9.846 0 22.645 6.892 31.507zM374.154 256c3.938 4.923 5.908 9.846 5.908 16.738s-0.985 11.814-4.923 16.737c-2.954 4.923-7.877 9.847-13.785 11.816-4.923 1.969-11.815 3.937-16.738 1.968-5.908-0.985-11.815-3.937-15.754-7.876s-6.892-9.847-8.862-15.755c-1.969-5.908-0.985-11.814 1.969-17.722 1.969-4.923 5.908-10.831 10.831-13.785 6.892-4.923 13.785-5.908 22.646-4.923 6.892 1.969 13.785 6.892 18.708 12.8zM356.431 268.799c-2.954-3.938-7.877-3.938-10.831-1.969-3.938 2.954-3.938 7.877-1.969 10.831 2.954 3.938 7.877 3.938 10.831 1.969 3.938-1.969 4.923-6.892 1.969-10.831zM911.754 428.309c16.738 0.985 31.508 10.831 41.354 25.6s15.754 34.462 14.769 56.123c-0.985 21.662-7.877 40.369-18.708 54.154s-25.6 22.646-42.338 22.646l-34.462-0.985c-7.877 0-15.754-2.954-23.631-7.877l-184.123-5.908c-6.892 3.938-14.769 5.908-23.631 5.908l-49.231-1.969c-16.738-0.985-31.508-10.831-41.354-25.6s-14.769-34.462-14.769-56.123c0.985-21.662 7.877-40.369 17.723-54.154 10.831-13.785 25.6-22.646 42.338-22.646l49.231 1.969c7.877 0 15.754 2.954 22.646 7.877l184.123 5.908c6.892-3.938 15.754-5.908 23.631-5.908l36.431 0.985zM911.754 437.17l-34.462-0.985c-12.8 0-24.615 5.908-34.462 18.708-9.846 11.815-15.754 29.538-16.738 50.215-0.985 19.692 4.923 38.4 12.8 51.2 8.862 12.8 20.677 20.677 33.477 20.677l34.462 0.985c12.8 0 24.615-5.908 34.462-18.708 9.846-11.815 15.754-29.538 16.738-50.215 0.985-19.692-4.923-38.4-12.8-51.2-8.862-12.8-20.677-19.692-33.477-20.677zM633.108 428.309l-36.431-0.985c-12.8 0-24.615 5.908-34.462 18.708-9.846 11.815-15.754 29.538-16.738 50.215-0.985 19.692 4.923 38.4 12.8 51.2 8.862 12.8 19.692 20.677 32.492 20.677l36.431 0.985c-9.846-3.938-18.708-10.831-24.615-20.677-8.862-13.785-13.785-31.508-13.785-51.2 0.985-19.692 6.892-37.415 16.738-50.215 8.862-8.862 17.723-15.754 27.569-18.708zM841.846 442.093l-195.938-6.892c-11.815 0-22.646 5.908-30.523 16.738-8.862 10.831-14.769 27.569-14.769 45.292-0.985 17.723 3.938 34.462 11.815 46.277s17.723 18.708 29.538 18.708l195.938 6.892c-1.969-2.954-4.923-4.923-6.892-8.862-9.846-14.769-15.754-34.462-14.769-56.123s7.877-40.369 18.708-55.138c1.969-1.969 4.923-4.923 6.892-6.892zM909.785 446.032c11.815 0 21.662 8.862 28.554 19.692 6.892 11.815 9.846 26.585 9.846 42.338-0.985 16.738-4.923 31.508-11.815 42.338s-17.723 18.708-29.538 17.723c-11.815 0-21.662-8.862-28.554-19.692s-9.846-26.585-9.846-42.338c0.985-16.738 4.923-31.508 11.815-42.338s17.723-17.723 29.538-17.723zM909.785 454.893c-7.877 0-14.769 3.938-21.662 13.785-5.908 8.862-9.846 22.646-10.831 37.415s2.954 28.554 7.877 38.4c5.908 9.846 12.8 14.769 20.677 14.769s14.769-4.923 21.662-13.785c5.908-8.862 10.831-22.646 10.831-37.415 0.985-14.769-2.954-28.554-8.862-38.4-4.923-8.862-12.8-13.785-19.692-14.769zM432.246 598.647c7.877 15.754 21.662 27.569 38.4 32.492 13.785 4.923 27.569 3.938 40.369-2.954 12.8-5.908 22.646-17.723 26.585-30.523 3.938-10.831 2.954-22.646-1.969-33.477s-13.785-17.723-24.615-21.662c-8.862-2.954-18.708-1.969-26.585 1.969-8.862 3.938-14.769 11.815-17.723 20.677-4.923 14.769 2.954 31.508 18.708 36.431 12.8 3.938 26.585-2.954 30.523-14.769 3.938-10.831-1.969-21.662-12.8-25.6-1.969-0.985-3.938 0-4.923 1.969s0 3.938 1.969 4.923c6.892 1.969 9.846 8.862 7.877 15.754-2.954 8.862-11.815 12.8-20.677 10.831-10.831-3.938-17.723-15.754-13.785-27.569 1.969-6.892 6.892-12.8 13.785-15.754s13.785-3.938 20.677-1.969c8.862 2.954 16.738 9.846 20.677 17.723 3.938 8.862 4.923 17.723 1.969 27.569-3.938 11.815-11.815 20.677-22.646 26.585s-23.631 5.908-34.462 2.954c-14.769-4.923-26.585-14.769-33.477-28.554s-7.877-29.538-2.954-44.308c5.908-18.708 19.692-33.477 36.431-42.338 17.723-8.862 37.415-9.846 56.123-3.938 1.969 0.985 3.938 0 4.923-1.969s0-3.938-1.969-4.923c-20.677-6.892-42.338-4.923-62.031 3.938-19.692 9.846-33.477 26.585-40.369 47.262-7.877 15.754-5.908 33.477 1.969 49.231zM378.092 435.202h-23.631v-47.262h23.631v47.262z" />
<glyph unicode="&#xe904;" glyph-name="guarant_icon3" horiz-adv-x="1132" d="M874.668 233.027v144.411h-18.051v-144.411h18.051zM856.615 418.46v-18.051h18.051v18.051h-18.051zM707.017 720.197h-85.756v-17.151h85.756v17.151zM749.896 531.534c-10.051 0-19.999-1.99-29.269-5.823-4.013 16.457-11.509 31.97-21.988 45.391v0c-0.712 0.901-1.424 1.792-2.152 2.684l-0.36-0.291 2.11 86.675h22.579c10.96 0 20.479 7.426 23.137 18.060l13.807 55.228c0.472 1.895 0.712 3.842 0.712 5.771 0 13.147-10.703 23.849-23.849 23.849h-140.967c-13.147 0-23.848-10.703-23.848-23.849 0-1.938 0.24-3.875 0.712-5.789l13.797-55.21c2.658-10.634 12.178-18.060 23.137-18.060h22.58l1.123-45.975c-8.825 2.032-17.881 3.096-27.048 3.096-60.424 0-110.352-44.233-118.695-102.796-0.36 0.146-0.73 0.231-1.081 0.377-2.255 0.865-4.536 1.637-6.834 2.367-1.913 0.608-3.842 1.175-5.781 1.681-1.852 0.488-3.713 0.96-5.6 1.355-2.624 0.557-5.274 0.987-7.932 1.364-1.433 0.206-2.848 0.463-4.288 0.608-4.211 0.437-8.439 0.712-12.726 0.712-66.205 0-120.060-53.856-120.060-120.059 0-15 2.787-29.647 8.301-43.642-20.916-12.186-34.028-34.611-34.028-59.267 0-37.827 30.778-68.605 68.605-68.605h463.087v222.968c0 42.552-34.629 77.181-77.181 77.181zM650.435 250.954c-48.229 17.538-80.628 63.795-80.628 115.112v28.256h66.71l1.467-60.245c0.359-14.304 11.851-25.512 26.155-25.512s25.796 11.209 26.147 25.512l1.475 60.245h66.711v-28.256c0-51.317-32.4-97.574-80.629-115.112-8.824-3.207-18.609-3.207-27.408 0zM636.105 411.474h-66.298v25.727h65.672l0.626-25.727zM758.472 411.474h-66.299l0.626 25.727h65.673v-25.727zM607.462 677.32c-3.079 0-5.754 2.084-6.5 5.069l-13.798 55.201c-0.137 0.548-0.206 1.098-0.206 1.637 0 3.696 3.001 6.698 6.697 6.698h140.967c3.696 0 6.697-3.002 6.697-6.698 0-0.54-0.068-1.089-0.197-1.621l-13.798-55.21c-0.754-2.992-3.422-5.077-6.509-5.077h-113.353zM681.084 660.169l-7.941-325.67c-0.12-4.922-4.073-8.782-9.004-8.782s-8.884 3.86-9.004 8.782l-7.941 325.67h33.89zM312.536 299.99c0 20.676 12.298 39.268 31.319 47.364l8.216 3.498-3.825 8.062c-6.62 13.978-9.982 28.779-9.982 43.985 0 56.744 46.164 102.908 102.909 102.908 4.099 0 8.155-0.249 12.16-0.73 0.986-0.111 1.938-0.359 2.915-0.497 3.070-0.454 6.14-0.943 9.15-1.672 0.67-0.163 1.304-0.404 1.964-0.575 3.361-0.892 6.697-1.878 9.965-3.112 0.239-0.086 0.463-0.206 0.703-0.291 3.627-1.407 7.195-3.002 10.702-4.829 12.846-6.706 24.347-16.071 33.6-27.914l13.515 10.557c-9.518 12.186-21.113 22.073-33.976 29.637 4.647 52.955 48.538 93.758 102.239 93.758 9.365 0 18.576-1.329 27.486-3.799l3.465-141.987h-82.404v-88.287c0-48.076 24.973-92.206 64.369-117.531h-253.034c-28.377 0-51.454 23.077-51.454 51.454zM809.926 248.536h-98.672c39.396 25.315 64.369 69.455 64.369 117.531v88.287h-82.403l2.187 89.676c5.179-10.12 8.859-20.976 10.462-32.28l1.827-12.889 11.122 6.766c9.416 5.728 20.17 8.755 31.078 8.755 33.102 0 60.030-26.927 60.030-60.029v-205.817zM621.261 582.986h-17.152v-17.152h17.152v17.152zM569.807 548.683h-17.152v-17.151h17.152v17.151zM604.109 505.808h-17.151v-17.151h17.151v17.151zM492.626 480.082h-17.152v-17.151h17.152v17.151zM398.293 445.779h-17.151v-17.151h17.151v17.151zM509.777 402.899h-17.151v-17.151h17.151v17.151zM775.623 488.654h-17.151v-17.151h17.151v17.151zM724.169 480.082h-17.151v-17.151h17.151v17.151zM801.35 291.414h-17.151v-17.152h17.151v17.152zM526.928 299.991h-17.151v-17.152h17.151v17.152zM441.171 342.871h-17.151v-17.152h17.151v17.152zM346.839 308.568h-17.151v-17.152h17.151v17.152z" />
<glyph unicode="&#xe905;" glyph-name="guarant_icon4" horiz-adv-x="1132" d="M489.998 384.189l-60.751-49.436-24.059 28.124c-2.307 2.746-6.482 3.076-9.338 0.769-2.746-2.307-3.076-6.482-0.769-9.338l28.234-33.067c2.307-2.746 6.371-3.076 9.118-0.878l65.695 53.5c2.856 2.307 3.296 6.371 0.99 9.228s-6.262 3.406-9.119 1.099zM796.389 727.709h-142.374c-10.656 22.301-37.462 31.858-59.763 21.092-9.228-4.394-16.698-11.865-21.092-21.092h-142.485c-15.38 0-27.794-12.524-27.904-27.904v-230.481l-64.596-35.374c-2.087-1.208-3.406-3.405-3.406-5.822v-65.914c0.11-61.851 36.693-117.877 93.379-142.595l14.501-6.262c1.647-0.769 3.624-0.769 5.273 0l16.259 7.031c6.482 2.746 12.634 5.822 18.676 9.447h313.532c15.381 0 27.795 12.523 27.904 27.904v442.066c0 15.38-12.523 27.904-27.904 27.904zM575.247 682.557c3.625 0 6.592 2.966 6.592 6.591v19.226c0 17.467 14.172 31.639 31.748 31.639 17.468 0 31.64-14.172 31.64-31.639v-19.115c0-3.625 2.966-6.591 6.591-6.591h63.607v-37.901h-203.675v37.791h63.497zM727.619 362.542c-15.38 0-27.794-12.523-27.904-27.903v-33.287h-153.141c8.569 19.664 12.963 40.757 12.963 62.178v64.486c0 2.417-1.318 4.724-3.515 5.823l-90.742 48.337v169.73c0 2.197 1.758 4.064 4.064 4.064h29.112v-17.797c0-3.625 2.967-6.591 6.591-6.591h216.859c3.625 0 6.592 2.966 6.592 6.591v17.797h29.112c2.197 0 4.064-1.758 4.064-4.064v-289.365h-34.056zM752.667 349.359l-39.769-39.768v25.048c0 8.129 6.592 14.611 14.721 14.72h25.048zM416.064 699.805c0 8.13 6.591 14.611 14.721 14.721h138.42c-0.33-2.087-0.44-4.064-0.44-6.152v-12.524h-63.607c-3.625 0-6.591-2.966-6.591-6.591v-20.104h-29.112c-9.558 0-17.248-7.69-17.248-17.248v-162.589l-3.405 1.758c-1.978 1.098-4.285 0.989-6.262 0l-26.475-14.501v223.23zM459.128 232.361l-13.732-5.932-11.865 5.163c-51.853 22.741-85.47 73.934-85.47 130.511v62.069l97.773 53.501 9.888-5.274h0.109l90.742-48.337v-60.532c-0.22-57.236-34.604-108.978-87.446-131.169zM796.389 242.908h-294.527c15.49 12.524 28.452 27.904 38.12 45.371h162.26c0.878 0 1.758 0.11 2.527 0.221 2.416-0.549 4.833 0.22 6.482 2.086 1.647 0.879 3.296 2.087 4.614 3.406l53.391 53.391c3.625 3.625 5.712 8.569 5.712 13.732v290.792c0 9.558-7.69 17.248-17.248 17.248h-29.112v19.994c0 3.625-2.966 6.592-6.591 6.592h-63.607v12.634c0 2.087-0.11 4.175-0.44 6.152h138.42c8.13 0 14.612-6.591 14.721-14.721v-442.285c0-8.020-6.591-14.612-14.721-14.612zM603.197 564.356h117.218c3.625 0 6.591 2.966 6.591 6.591s-2.966 6.591-6.591 6.591h-117.218c-3.624 0-6.591-2.966-6.591-6.591s2.967-6.591 6.591-6.591zM505.158 564.356h41.416c3.625 0 6.591 2.966 6.591 6.591s-2.966 6.591-6.591 6.591h-41.416c-3.625 0-6.592-2.966-6.592-6.591s2.856-6.591 6.592-6.591zM722.016 520.293h-22.411c-3.625 0-6.592-2.967-6.592-6.592s2.967-6.591 6.592-6.591h22.411c3.625 0 6.591 2.966 6.591 6.591s-2.966 6.592-6.591 6.592zM630.065 513.701c0 3.625-2.966 6.592-6.591 6.592h-118.316c-3.625 0-6.592-2.967-6.592-6.592s2.967-6.591 6.592-6.591h118.316c3.625 0 6.591 2.856 6.591 6.591zM722.016 459.327h-123.919c-3.625 0-6.592-2.967-6.592-6.592s2.967-6.591 6.592-6.591h123.808c3.625 0 6.592 2.967 6.592 6.591s-2.856 6.592-6.482 6.592zM722.016 403.077h-79.866c-3.625 0-6.592-2.966-6.592-6.591s2.967-6.592 6.592-6.592h79.866c3.625 0 6.591 2.967 6.591 6.592s-2.966 6.591-6.591 6.591zM874.637 234.198v152.759h-19.096v-152.759h19.096zM855.539 430.35v-19.095h19.096v19.095h-19.096z" />
<glyph unicode="&#xe906;" horiz-adv-x="969" d="M424.912 387.584v0c-2.481-5.89-8.221-9.695-14.61-9.695-2.116 0-4.191 0.417-6.146 1.242-0.002 0-0.002 0-0.002 0.002l0.711 1.684 20.047 6.768zM424.912 387.584v0zM627.979 910.573c8.057-3.389 11.845-12.694 8.446-20.752l-8.446 20.752zM627.979 910.573c-1.953 0.828-4.021 1.259-6.146 1.259M627.979 910.573l-6.146 1.259M621.833 911.832c-6.389 0-12.129-3.813-14.61-9.707l14.61 9.707zM783.040 419.93v112.68h7.515c8.737 0 15.845 7.106 15.845 15.85v128.53c0 8.739-7.109 15.845-15.845 15.845h-7.515v112.685c0 8.739-7.108 15.85-15.846 15.85h-25.035v48.415c0 8.739-7.108 15.85-15.845 15.85h-65.311c-6.391 0-12.116-3.813-14.597-9.694v-0.002c-2.066-4.91-1.543-10.48 1.393-14.916v-0.002c2.944-4.437 7.885-7.086 13.204-7.086h49.465v-32.565h-76.533c-6.385 0-12.118-3.813-14.597-9.694l-0.002-0.001c-2.064-4.905-1.543-10.482 1.401-14.918 2.942-4.436 7.883-7.086 13.199-7.086h117.414v-96.835h-111.728c-4.518 0-8.836-1.927-11.833-5.307 0 0 0 0 0-0.002l-57.302-64.254c-5.352-6.011-5.36-15.084 0.002-21.1v0l57.304-64.267c3.012-3.368 7.327-5.296 11.829-5.296h111.728v-96.836h-279.806c-6.382 0-12.122-3.805-14.603-9.688v-0.002c-2.066-4.904-1.545-10.487 1.399-14.925h0.002c2.948-4.436 7.883-7.080 13.202-7.080h295.651c8.737 0 15.846 7.106 15.846 15.85zM575.197 863.629v0.001c2.064 4.905 1.543 10.482-1.401 14.918-2.942 4.436-7.877 7.086-13.204 7.086h-240.444c-26.331 0-47.691-21.364-47.691-47.626v-359.657c0-40.958 33.307-74.273 74.247-74.273h24.428c6.389 0 12.123 3.805 14.599 9.695 2.064 4.904 1.543 10.481-1.399 14.917-2.94 4.44-7.881 7.082-13.2 7.082h-24.428c-23.461 0-42.558 19.103-42.558 42.578v314.065c5.054-1.796 10.553-2.747 16.002-2.747h213.376c6.395 0 12.129 3.812 14.605 9.696 2.064 4.905 1.543 10.481-1.401 14.918s-7.877 7.086-13.204 7.086h-213.416c-8.801 0-15.962 7.167-15.962 15.961v0.596c0 8.823 7.184 16.008 16.002 16.008h240.444c6.391 0 12.123 3.813 14.605 9.694zM667.911 587.849c13.714 0 24.869 11.16 24.869 24.876 0 13.711-11.156 24.87-24.869 24.87s-24.867-11.16-24.867-24.87c0-13.716 11.154-24.876 24.867-24.876zM774.711 564.304h-127.991l-43.158 48.421 43.158 48.415h127.991v-96.836z" />
<glyph unicode="&#xe907;" horiz-adv-x="969" d="M18.286 38.983c0-20.869 16.986-37.85 37.85-37.85h138.801c20.864 0 37.837 16.98 37.837 37.85v2.176c282.928-90.117 289.989-102.696 327.857-83.995l352.267 177.397c37.030 18.311 49.351 65.072 26.273 99.24-18.394 27.231-55.623 37.76-85.912 23.327-203.396-95.003-184.81-98.968-185.882-84.511-2.567 34.842-33.048 62.135-69.394 62.135h-102.98c-65.999 64.965-152.779 78.771-214.57 78.771-19.864 0-36.272-1.445-47.66-2.849v12.908c0 20.871-16.973 37.85-37.837 37.85h-138.801c-20.864 0-37.85-16.978-37.85-37.85v-284.599zM232.773 282.185c10.348 1.388 27.141 3.077 47.66 3.077 57.679 0 138.94-12.915 198.523-74.47 2.662-2.747 6.334-4.299 10.156-4.299h108.871c21.623 0 39.728-15.793 41.218-35.953 1.68-22.769-16.181-41.913-38.83-41.913h-164.33c-7.81 0-14.129-6.327-14.129-14.129 0-7.804 6.32-14.131 14.129-14.131h164.33c21.696 0 41.591 10.346 54.223 27.73l210.96 103.592c17.498 8.307 39.437 2.222 50.2-13.709 13.477-19.957 6.369-47.338-15.483-58.134l-352.267-177.397c-10.39-5.133-22.74-6.029-33.724-2.483l-281.507 90.893v211.326zM46.546 323.582c0 5.285 4.305 9.591 9.59 9.591h138.801c5.285 0 9.576-4.306 9.576-9.591 0-110.579 0-185.344 0-284.599 0-5.285-4.292-9.589-9.576-9.589h-138.801c-5.285 0-9.59 4.304-9.59 9.589v284.599z" />
<glyph unicode="&#xe908;" horiz-adv-x="969" d="M125.53 243.211c16.373 0 29.646 13.274 29.646 29.647 0 16.371-13.273 29.645-29.646 29.645s-29.646-13.274-29.646-29.645c0-16.373 13.273-29.647 29.646-29.647z" />
<glyph unicode="&#xe909;" horiz-adv-x="969" d="M433.185 198.298c3.781 6.83 1.311 15.426-5.519 19.207-14.736 8.176-30.426 15.109-46.599 20.623-7.367 2.518-15.413-1.435-17.924-8.812-2.525-7.389 1.421-15.419 8.817-17.931 14.585-4.974 28.729-11.231 42.017-18.593 6.76-3.769 15.406-1.346 19.207 5.506z" />
<glyph unicode="&#xe90a;" horiz-adv-x="969" d="M331.792 250.525c-16.614 2.767-33.558 4.312-50.366 4.601-7.837 0.229-14.226-6.085-14.363-13.888-0.139-7.803 6.085-14.234 13.895-14.371 15.398-0.263 30.95-1.684 46.199-4.217 7.66-1.276 14.974 3.889 16.254 11.619 1.284 7.7-3.919 14.98-11.619 16.256z" />
<glyph unicode="&#xe90b;" horiz-adv-x="969" d="M621.714 946.575l37.453-15.839-241.484-571.020-37.453 15.839 241.484 571.020z" />
<glyph unicode="&#xe90c;" glyph-name="head_icon2" horiz-adv-x="1188" d="M607.13 408.47c-25.041 0-44.728 9.462-59.064 28.385-14.146 19.114-21.217 44.442-21.217 75.981s7.072 56.771 21.217 75.694c14.336 19.114 34.023 28.672 59.064 28.672 25.231 0 44.919-9.558 59.064-28.672 14.146-18.924 21.217-44.155 21.217-75.694s-7.072-56.867-21.217-75.981c-14.146-18.924-33.833-28.385-59.064-28.385zM576.737 463.806c6.881-11.086 17.013-16.63 30.392-16.63s23.511 5.638 30.392 16.916c7.072 11.278 10.609 27.525 10.609 48.742 0 21.408-3.537 37.751-10.609 49.029-6.881 11.278-17.013 16.916-30.392 16.916s-23.511-5.638-30.392-16.916c-6.881-11.278-10.322-27.621-10.322-49.029s3.441-37.751 10.322-49.029zM793.311 536.060c-9.175-8.985-20.644-13.476-34.406-13.476s-25.326 4.588-34.693 13.763c-9.175 9.175-13.763 20.357-13.763 33.546s4.588 24.371 13.763 33.546c9.368 9.175 20.931 13.763 34.693 13.763s25.231-4.588 34.406-13.763c9.175-8.985 13.763-20.167 13.763-33.546s-4.588-24.658-13.763-33.833zM730.806 442.876l130.744 145.367 17.49-9.748-131.031-145.654-17.203 10.035zM745.716 556.704c3.441-3.441 7.741-5.161 12.902-5.161s9.462 1.72 12.902 5.161c3.441 3.631 5.161 8.028 5.161 13.189s-1.72 9.462-5.161 12.902c-3.441 3.441-7.741 5.161-12.902 5.161s-9.462-1.72-12.902-5.161c-3.248-3.441-4.874-7.741-4.874-12.902s1.626-9.558 4.874-13.189zM890.223 422.806c-9.175-9.175-20.644-13.763-34.406-13.763s-25.231 4.588-34.406 13.763c-9.175 9.175-13.763 20.357-13.763 33.546s4.588 24.371 13.763 33.546c9.175 9.175 20.644 13.763 34.406 13.763s25.231-4.588 34.406-13.763c9.175-9.175 13.763-20.357 13.763-33.546s-4.588-24.371-13.763-33.546zM842.914 443.163c3.441-3.441 7.741-5.161 12.902-5.161s9.368 1.817 12.616 5.448c3.441 3.631 5.161 7.932 5.161 12.902 0 5.161-1.72 9.462-5.161 12.902-3.248 3.631-7.455 5.448-12.616 5.448s-9.462-1.817-12.902-5.448c-3.248-3.441-4.874-7.741-4.874-12.902s1.626-9.558 4.874-13.189z" />
<glyph unicode="&#xe90d;" horiz-adv-x="939" d="M644.028 944.337v-29.108h-13.487c-12.994 0-25.457-5.162-34.645-14.351s-14.351-21.651-14.351-34.645v-62.483c0-12.995 5.163-25.457 14.351-34.645s21.651-14.35 34.645-14.35h13.487v-29.109c0-12.994 5.163-25.457 14.351-34.645s21.651-14.349 34.645-14.349h44.727v-26.976h-93.724v-46.861h-62.483v-203.070h-281.171v-203.070h-281.173v-254.197h910.268v660.337h-62.483v46.861h-93.724v26.976h44.727c12.994 0 25.457 5.161 34.645 14.349s14.351 21.651 14.351 34.645v29.109h13.487c12.994 0 25.457 5.162 34.645 14.35s14.351 21.651 14.351 34.645v62.483c0 12.994-5.163 25.456-14.351 34.645s-21.651 14.351-34.645 14.351h-13.487v31.241h-222.957v-2.133zM300.373-22.012h-245.665v183.181h245.665v-183.181zM581.545-22.012h-245.664v386.251h245.664v-386.251zM893.958-22.012h-276.905v589.318h276.905v-589.318zM831.475 602.816h-151.94v11.354h151.94v-11.354zM880.471 879.721c3.578 0 7.008-1.421 9.538-3.951 2.528-2.529 3.949-5.96 3.949-9.537v-62.483c0-3.577-1.421-7.008-3.949-9.537-2.53-2.529-5.961-3.95-9.538-3.95h-13.487v89.457h13.487zM630.541 790.264c-3.578 0-7.008 1.421-9.538 3.95-2.528 2.529-3.949 5.96-3.949 9.537v62.483c0 3.577 1.421 7.008 3.949 9.537 2.53 2.529 5.961 3.951 9.538 3.951h13.487v-89.457h-13.487zM679.535 725.647v185.316h151.94v-185.316c0-3.575-1.421-7.008-3.949-9.536-2.53-2.53-5.961-3.951-9.538-3.951h-124.964c-3.578 0-7.008 1.421-9.538 3.951-2.528 2.528-3.951 5.961-3.951 9.536z" />
<glyph unicode="&#xe90e;" horiz-adv-x="939" d="M177.54 225.786c12.358 0 24.438 3.665 34.713 10.53 10.276 6.865 18.285 16.623 23.012 28.041 4.73 11.418 5.967 23.981 3.556 36.102-2.411 12.119-8.363 23.253-17.101 31.991s-19.871 14.688-31.991 17.101c-12.12 2.411-24.684 1.173-36.101-3.556s-21.176-12.738-28.041-23.012c-6.866-10.276-10.53-22.357-10.53-34.714 0-16.572 6.583-32.465 18.301-44.183 11.718-11.716 27.611-18.3 44.182-18.3zM177.54 319.509c6.179 0 12.219-1.833 17.357-5.265s9.142-8.311 11.506-14.020c2.365-5.709 2.983-11.991 1.778-18.050-1.206-6.061-4.181-11.629-8.55-15.998s-9.936-7.343-15.996-8.548c-6.060-1.207-12.342-0.589-18.050 1.777-5.709 2.364-10.588 6.368-14.021 11.507-3.433 5.137-5.265 11.177-5.265 17.357 0 8.284 3.292 16.23 9.15 22.091 5.859 5.858 13.805 9.15 22.091 9.15z" />
<glyph unicode="&#xe90f;" horiz-adv-x="939" d="M458.714 428.853c12.356 0 24.437 3.665 34.714 10.532 10.274 6.865 18.283 16.623 23.012 28.041s5.967 23.981 3.556 36.1c-2.413 12.122-8.363 23.253-17.101 31.994-8.738 8.738-19.872 14.688-31.994 17.099-12.119 2.411-24.683 1.173-36.1-3.554-11.418-4.73-21.175-12.738-28.041-23.014-6.867-10.274-10.53-22.355-10.53-34.714 0-16.572 6.583-32.463 18.3-44.181 11.718-11.718 27.612-18.302 44.183-18.302zM458.714 522.579c6.178 0 12.218-1.833 17.357-5.265 5.137-3.433 9.141-8.314 11.505-14.022 2.366-5.707 2.985-11.989 1.779-18.050-1.207-6.059-4.181-11.627-8.55-15.996s-9.937-7.345-15.996-8.55c-6.061-1.205-12.343-0.587-18.052 1.779-5.709 2.364-10.588 6.368-14.020 11.505-3.433 5.139-5.265 11.179-5.265 17.357 0 8.286 3.292 16.233 9.15 22.091 5.86 5.86 13.807 9.152 22.093 9.152z" />
<glyph unicode="&#xe910;" horiz-adv-x="939" d="M286.884 475.716v31.241c-33.131-0.036-64.894-13.214-88.322-36.642-23.428-23.426-36.605-55.191-36.643-88.322h31.241c0.025 24.849 9.907 48.674 27.479 66.244 17.57 17.572 41.395 27.454 66.244 27.479z" />
<glyph unicode="&#xe911;" horiz-adv-x="939" d="M568.058 678.786v31.241c-33.131-0.036-64.896-13.216-88.322-36.642-23.428-23.428-36.606-55.191-36.644-88.324h31.243c0.023 24.851 9.907 48.674 27.477 66.246 17.572 17.572 41.397 27.454 66.246 27.479z" />
<glyph unicode="&#xe912;" horiz-adv-x="939" d="M864.851 538.199h-31.243v-531.104h31.243v531.104z" />
<glyph unicode="&#xe913;" horiz-adv-x="939" d="M552.437 335.13h-31.243v-328.034h31.243v328.034z" />
<glyph unicode="&#xe914;" horiz-adv-x="939" d="M271.264 132.062h-31.241v-124.966h31.241v124.966z" />
<glyph unicode="&#xe915;" glyph-name="imp_icon1" horiz-adv-x="828" d="M555.147 353.81l270.821 210.424v-622.202h-820.357v401.676h51.667l27.772 610.681h118.567l0.061-1.339 27.722-609.342h39.897l283.85 220.515v-210.412zM57.868 324.351h-32.89l-0.011-362.969h781.643v563.29l-270.82-210.424v210.435l-257.86-200.332h-220.063zM212.019 343.708l-4.673 102.776h-126.016l-4.673-102.776h135.361zM97.992 812.89l-4.673-102.775h102.028l-4.672 102.775h-92.683zM196.236 690.758h-103.794l-4.673-102.776h113.139l-4.672 102.776zM201.797 568.626h-114.905l-4.673-102.776h124.25l-4.673 102.776zM185.125 935.033h-81.573l-4.672-102.776h90.916l-4.672 102.776zM736.978 84.206v-1.403h-108.329v126.548h108.329v-125.145zM717.628 189.994h-69.621v-87.833h69.621v87.833zM559.019 84.206v-1.403h-108.331v126.548h108.331v-125.145zM539.663 189.994h-69.619v-87.833h69.619v87.833zM381.068 84.206v-1.403h-108.354v126.548h108.354v-125.145zM361.712 189.994h-69.642v-87.833h69.642v87.833zM203.094 84.206v-1.403h-108.32v126.548h108.32v-125.145zM183.739 189.994h-69.609v-87.833h69.609v87.833z" />
<glyph unicode="&#xe916;" glyph-name="imp_icon2" horiz-adv-x="1046" d="M1023.342 845.675l-16.106 8.054c5.749 24.163 13.809 73.642-23.011 93.203-6.905 3.452-14.965 5.753-21.87 5.753-39.117 0-72.485-47.177-74.789-49.478 0 0 0-1.151-1.148-1.151l-29.923-56.382v70.19c0 5.753-4.601 10.356-10.35 10.356h-828.476c-5.753 0-10.356-4.603-10.356-10.356v-961.952c0-5.749 4.603-10.35 10.356-10.35h607.546c2.302 0 3.452 1.148 5.753 2.297l222.073 167.995c0 0 0 0 1.156 0l1.148 1.156c1.148 1.148 2.304 3.452 2.304 5.749v441.855l23.011 44.875 14.958 28.766 92.050 176.050c3.452-1.151 4.608-5.753 2.304-9.205l-88.598-170.297c-5.756-11.507-1.156-25.315 9.201-31.068 3.452-1.151 6.905-2.301 10.357-2.301 8.053 0 16.113 4.603 20.714 12.657l96.651 184.105v1.151c9.209 17.26 2.304 39.123-14.958 48.328zM903.673 892.852c8.060 11.507 34.523 40.273 57.534 40.273 4.601 0 9.209-1.151 12.661-3.452 28.767-14.959 14.958-65.588 11.505-77.094l-11.505-23.013-92.058-176.050-80.545 42.574 102.407 196.762zM868.008 624.749l-81.701 42.574 5.756 11.506 81.693-42.574-5.749-11.506zM636.723-24.218l13.808 136.923 167.996-1.148-181.804-135.775zM838.085 132.272l-195.609 1.148c-4.603 0-9.206-3.452-10.356-9.209l-16.109-159.941h-589.136v942.39h811.21v-98.956l-57.527-111.614-16.113-28.766-162.242-312.978c-1.151-1.151-1.151-2.302-1.151-3.452l-12.657-125.422c-1.151-2.304-2.301-4.601-2.301-8.053 1.151-3.452-4.603-18.41-23.014-42.576-4.602-6.905-9.205-11.505-13.807-17.262 5.753 10.357 10.356 21.862 9.205 33.375 0 5.749-5.753 9.201-10.356 9.201-5.753 0-9.205-4.601-9.205-10.357 0-9.201-5.753-18.41-13.808-28.767-4.603-5.749-9.205-12.654-12.657-19.558l-1.151-1.148c-3.452-3.452-6.904-6.905-11.506-9.209 1.151 4.601 2.301 9.209 2.301 14.958 0 4.608-4.603 9.209-9.205 9.209-6.904 0-14.959 0-21.863 0-13.807 0-28.766 0-41.423 2.297 3.452 5.756 11.506 12.661 21.862 16.113 18.41 8.053 34.52 5.749 39.122 2.304 3.452-4.608 9.206-4.608 13.808-1.156s4.603 9.209 1.151 13.809c-12.657 13.809-40.272 11.505-60.984 3.452-24.164-9.209-36.821-25.315-35.67-42.576 0-4.601 3.452-8.053 6.904-9.201 18.41-5.756 37.971-5.756 56.382-5.756 3.452 0 6.904 0 10.356 0-5.753-11.505-21.862-23.011-34.52-31.064-1.151 0-1.151 0-2.301-1.156-20.712-6.905-48.328-17.254-49.478-37.968 0-3.452 1.151-5.756 3.452-8.053 2.302-2.304 4.603-2.304 6.904-2.304h1.151c12.657 1.148 23.013 10.357 32.218 18.41 3.452 3.452 6.904 5.756 10.356 8.053 2.301 1.156 4.602 2.304 6.904 4.608 2.301 1.148 5.753 2.297 8.054 3.445 16.109 6.905 32.218 13.809 47.176 24.166 1.151-1.148 3.452-2.297 6.904-3.452 11.507-1.148 28.766 10.357 49.478 34.523 3.452 3.452 25.315 28.767 35.67 51.778 0 0 1.151 0 1.151 1.148l112.764 92.054c1.151 1.151 2.301 2.302 2.301 3.452l119.668 231.281v-391.219h-2.304zM701.16 304.867l-93.203-75.943 11.506 117.366 157.643 302.623 81.693-42.574-157.64-301.471zM1021.045 806.552l-96.658-185.255c-1.148-2.301-3.452-2.301-4.601-1.151-1.156 1.151-2.304 2.301-1.156 4.603l88.605 169.147c6.905 12.657 1.148 28.766-11.505 35.67l3.452 6.904 14.958-8.055c8.053-4.602 11.505-13.807 6.905-21.862zM122.38 750.593h586.835c6.157 0 11.088 4.93 11.088 11.087 0 3.089-1.243 5.595-3.28 7.319-2.024 1.712-4.79 2.618-7.808 2.618h-586.835c-6.157 0-11.087-4.93-11.087-11.087 0-3.145 1.579-5.644 3.732-7.335 2.14-1.682 4.888-2.601 7.355-2.601zM111.293 464.808v-0.061l0.010-0.059c1.2-7.202 6.064-10.967 11.077-10.967h449.907c6.157 0 11.087 4.93 11.087 11.087s-4.93 11.088-11.087 11.088h-449.907c-6.157 0-11.087-4.931-11.087-11.088zM350.21 325.157h-227.83c-6.157 0-11.087-4.931-11.087-11.088s4.93-11.087 11.087-11.087h226.679c6.158 0 11.088 4.93 11.088 11.087 0 3.623-1.212 6.405-3.091 8.284-1.872 1.872-4.364 2.804-6.845 2.804zM111.293 613.241v-0.072l0.014-0.071c0.604-3.019 2.112-5.738 4.084-7.709 1.967-1.967 4.444-3.235 6.99-3.235h529.302c6.157 0 11.088 4.931 11.088 11.088s-4.931 11.087-11.088 11.087h-529.302c-6.157 0-11.087-4.93-11.087-11.087z" />
<glyph unicode="&#xe917;" glyph-name="imp_icon3" d="M0.695-47.609c0.242-0.835 0.5-1.627 0.899-2.382 0.154-0.298 0.163-0.625 0.342-0.908 0.427-0.69 0.968-1.249 1.496-1.823 0.156-0.167 0.267-0.363 0.431-0.523 1.044-1.017 2.246-1.787 3.533-2.382 0.301-0.138 0.603-0.24 0.917-0.356 1.408-0.523 2.871-0.879 4.377-0.886 0.007 0 0.013-0.007 0.020-0.007h991.398c7.030 0 12.709 5.694 12.709 12.716v620.417c0 0.178-0.087 0.326-0.094 0.502-0.058 1.428-0.32 2.816-0.835 4.124-0.051 0.138-0.073 0.285-0.131 0.421-0.566 1.307-1.402 2.471-2.382 3.53-0.218 0.237-0.428 0.455-0.668 0.675-0.247 0.228-0.436 0.5-0.704 0.71l-145.546 115.317c-0.407 0.324-0.908 0.415-1.336 0.681v112.408c0 7.019-5.686 12.711-12.716 12.711h-144.734l-141.529 112.127c-34.618 27.419-82.927 27.388-117.52-0.118l-140.62-111.891c-0.042-0.033-0.058-0.084-0.099-0.118h-153.578c-7.025 0-12.71-5.692-12.71-12.711v-119.558l-136.821-108.86c-0.265-0.211-0.458-0.484-0.703-0.713-0.225-0.211-0.425-0.42-0.635-0.645-0.986-1.064-1.826-2.235-2.393-3.551-0.056-0.129-0.072-0.269-0.124-0.399-0.514-1.31-0.777-2.704-0.835-4.135-0.007-0.177-0.102-0.325-0.102-0.505v-620.417c0-0.341 0.168-0.632 0.194-0.966 0.064-0.85 0.262-1.649 0.501-2.484zM347.819 351.552v-42.402l-21.225-36.747c-2.272-3.928-2.272-8.775 0-12.71l21.225-36.755v-42.398l-322.399-201.757v574.529l322.399-201.761zM991.399 553.312v-574.529l-321.89 201.438c0.003 0.102 0.038 0.189 0.038 0.29v42.427l21.213 36.755c2.271 3.935 2.271 8.775 0 12.71l-21.213 36.747v42.431c0 0.099-0.036 0.191-0.039 0.29l321.89 201.44zM366.614 162.319l24.301-14.031 21.225-36.748c2.271-3.936 6.466-6.355 11.010-6.355h42.438l36.741-21.221c1.961-1.133 4.158-1.699 6.355-1.699s4.394 0.566 6.355 1.699l36.741 21.221h42.438c4.543 0 8.738 2.418 11.010 6.355l21.225 36.748 24.020 13.864 309.372-193.601h-902.866l309.636 193.768zM644.127 344.246v-38.503c0-2.228 0.583-4.425 1.7-6.355l19.252-33.34-19.252-33.35c-1.117-1.932-1.7-4.125-1.7-6.355v-38.498l-33.34-19.245c-1.936-1.118-3.538-2.723-4.654-4.655l-19.252-33.342h-38.503c-2.234 0-4.418-0.588-6.355-1.699l-33.34-19.253-33.34 19.253c-1.936 1.111-4.121 1.699-6.355 1.699h-38.504l-19.251 33.342c-1.117 1.932-2.718 3.537-4.654 4.655l-33.34 19.245v38.498c0 2.237-0.584 4.43-1.701 6.355l-19.264 33.35 19.264 33.34c1.117 1.93 1.701 4.121 1.701 6.355v38.503l33.34 19.245c1.936 1.118 3.538 2.725 4.654 4.655l19.251 33.345h38.504c2.234 0 4.418 0.59 6.355 1.701l33.34 19.251 33.34-19.251c1.937-1.111 4.121-1.701 6.355-1.701h38.503l19.252-33.345c1.117-1.93 2.718-3.538 4.654-4.655l33.34-19.245zM982.103 577.48l-116.983-73.211v165.897l116.983-92.687zM464.458 919.447c25.259 20.127 60.585 20.145 85.894 0.093l116.384-92.205h-318.040l115.762 92.112zM839.695 801.915v-313.555l-189.228-118.422-24.015 13.865-21.225 36.753c-2.272 3.935-6.467 6.355-11.010 6.355h-42.438l-36.741 21.219c-3.922 2.271-8.788 2.271-12.71 0l-36.741-21.219h-42.438c-4.543 0-8.739-2.421-11.010-6.355l-21.225-36.753-24.301-14.030-199.581 124.898v307.243h672.661zM141.613 662.569v-151.989l-106.933 66.919 106.933 85.070zM289.581 659.505h438.207c7.023 0 12.709 5.692 12.709 12.711s-5.686 12.71-12.709 12.71h-438.207c-7.026 0-12.711-5.691-12.711-12.71s5.685-12.711 12.711-12.711zM289.581 547.112h438.207c7.023 0 12.709 5.691 12.709 12.71s-5.686 12.711-12.709 12.711h-438.207c-7.026 0-12.711-5.692-12.711-12.711s5.685-12.71 12.711-12.71zM584.523 318.563h-151.679c-7.026 0-12.711-5.691-12.711-12.71s5.685-12.71 12.711-12.71h151.679c7.025 0 12.71 5.691 12.71 12.71s-5.685 12.71-12.71 12.71zM584.523 238.957h-151.679c-7.026 0-12.711-5.692-12.711-12.708 0-7.023 5.685-12.709 12.711-12.709h151.679c7.025 0 12.71 5.686 12.71 12.709 0 7.015-5.685 12.708-12.71 12.708z" />
<glyph unicode="&#xe918;" glyph-name="info_icon1" horiz-adv-x="931" d="M670.282 559.496v168.902c0 103.006-83.586 186.59-186.591 186.59h-36.415c-103.006 0-186.59-83.584-186.59-186.59v-168.902c0-30.52 12.485-58.96 33.988-79.771v-130.057c-40.578-20.81-139.769-74.91-232.37-151.212-27.052-22.198-42.312-54.798-42.312-89.828v-115.838c0-19.074 15.26-34.337 34.335-34.337h821.966c19.074 0 34.337 15.262 34.337 34.337v115.838c0 35.030-15.262 67.631-42.31 89.828-92.602 75.953-191.795 130.402-232.374 151.212v130.057c21.848 20.464 34.337 49.251 34.337 79.771zM824.962 145.389c11.101-9.016 17.343-22.542 17.343-36.762v-81.501h-753.296v81.501c0 14.22 6.243 27.746 17.341 36.762 101.966 83.931 212.602 139.771 233.758 150.174 14.22 6.94 23.584 21.853 23.584 37.46v163.005c0 11.445-5.896 22.197-15.26 28.439-11.792 7.977-18.728 20.81-18.728 34.682v168.902c0 65.202 53.064 117.919 117.919 117.919h36.418c65.201 0 117.918-53.064 117.918-117.919v-168.902c0-13.873-6.935-27.052-18.73-34.682-9.709-6.243-15.258-16.994-15.258-28.439v-163.005c0-15.956 9.365-30.52 23.585-37.46 20.806-10.403 131.444-66.588 233.407-150.174z" />
<glyph unicode="&#xe919;" glyph-name="info_icon2" horiz-adv-x="1106" d="M340.518 22.442h-134.034c-6.459 0-11.304 3.232-14.533 8.073l-53.291 93.663c-29.068 50.061-51.676 88.818-95.277 164.717-3.23 4.846-3.23 11.305 0 16.151l95.277 164.717-40.371 24.224c-4.845 1.614-8.074 8.073-8.074 12.919 0 6.459 3.23 11.305 8.074 14.533l224.467 119.5c4.845 3.23 11.304 3.23 16.149 0s8.074-8.074 8.074-14.534v-253.533c0-6.459-3.23-11.305-8.074-14.537-4.845-3.228-11.304-3.228-16.149 0l-43.602 25.838-116.27-198.627h177.635c9.689 0 16.149-6.459 16.149-16.151v-130.802c0-8.077-6.46-16.151-16.149-16.151zM216.173 54.739h108.196v98.509h-164.717c1.615-4.846 4.844-8.073 8.074-12.919l48.446-85.59zM77.294 296.972c24.223-40.374 40.372-71.057 56.521-98.509l124.345 216.392c1.615 3.232 6.459 6.459 9.689 8.073 4.845 1.618 8.074 0 12.919-1.614l33.912-20.992v198.629l-174.406-92.047 29.068-17.764c8.074-4.846 9.689-14.533 6.459-22.61l-98.507-169.558zM857.276 484.291c-3.232 0-6.459 0-8.073 1.614l-101.741 61.366h-1.614l-114.655 69.439c-4.846 3.23-8.073 8.074-8.073 14.534s3.228 11.304 8.073 14.534l43.602 22.608-116.269 203.473-87.204-150.183c-1.614-3.23-6.459-6.459-9.691-8.074-4.841-1.615-8.073 0-12.919 1.615l-111.425 66.209c-8.074 4.845-9.689 14.534-6.459 22.608l62.98 109.811c3.23 4.845 8.074 8.075 14.534 8.075h298.75c6.459 0 11.305-3.23 14.533-8.075l96.895-169.561 43.602 22.608c4.841 3.23 11.301 3.23 16.146 0s8.073-8.074 8.073-14.534l-12.919-253.535c0-6.459-3.228-11.301-8.073-12.919-1.614-1.614-4.846-1.614-8.073-1.614zM765.227 574.723l77.513-46.831 9.691 198.629-32.297-17.764c-8.073-4.845-17.764-1.615-20.992 6.459l-100.123 174.406h-113.041l127.574-219.622c1.614-3.23 3.232-8.074 1.614-12.919-1.614-4.845-4.841-8.074-8.073-9.689l-32.297-17.764 90.431-54.906c-1.614 0 0 0 0 0zM367.97 800.805l83.974-50.061 80.744 138.879h-113.041l-51.677-88.818zM710.324-37.315c-3.232 0-6.459 0-8.073 1.614l-218.010 130.806c-4.846 3.228-6.459 8.073-6.459 14.533s3.232 11.305 8.073 14.537l218.010 130.802c4.846 3.232 11.305 3.232 16.146 0 4.846-3.228 8.077-8.073 8.077-14.533v-54.907h227.697l-85.59 146.952c-1.614 3.232-3.228 8.077-1.614 12.919 1.614 4.846 4.846 8.077 8.073 9.691l114.655 61.366c8.077 4.841 17.764 1.614 20.996-6.459l59.748-104.968c3.232-4.846 3.232-11.305 0-16.146-43.602-74.285-66.208-113.041-93.663-163.103l-54.903-95.277c-3.232-4.846-8.077-8.077-14.537-8.077h-182.481v-43.598c0-6.459-3.228-11.305-8.073-14.537-1.614-1.614-4.846-1.614-8.073-1.614zM524.616 109.638l169.558-101.736v32.297c0 9.691 6.459 16.151 16.151 16.151h188.94l50.061 87.204c1.614 3.228 3.228 6.459 6.459 9.687h-245.461c-9.691 0-16.151 6.459-16.151 16.151v41.984l-169.558-101.736zM905.724 334.107l77.513-135.651c16.151 27.455 32.297 56.521 56.521 98.509l-48.447 82.358-85.586-45.216zM557.715 607.37c-5.624 0-10.945-2.692-14.455-7.319-28.938-38.078-97.882-137.392-97.882-188.948 0-64.549 50.799-118.28 112.337-118.28 61.313 0 112.341 53.498 112.341 118.28 0 51.515-68.874 150.784-97.878 188.948-3.514 4.627-8.835 7.319-14.463 7.319zM633.025 411.103c0-42.975-34.488-79.286-75.309-79.286-40.817 0-75.305 36.311-75.305 79.286 0 26.841 36.594 90.845 75.305 144.969 38.715-54.124 75.309-118.128 75.309-144.969z" />
<glyph unicode="&#xe91a;" glyph-name="info_icon3" d="M358.266 852.076l-0.021 0.016-0.208-0.399-201.047-388.227c-3.382-5.071-3.337-11.737 0.134-16.765 1.737-2.514 4.237-4.481 6.808-5.819 2.559-1.331 5.464-2.179 8.166-2.179h132.734l-147.997-340.646c-3.662-7.235 0.294-15.325 6.316-19.781 1.456-1.285 3.269-1.713 4.609-1.896 1.417-0.194 2.964-0.194 4.222-0.194h0.116c4.689 0 9.681 1.494 13.181 4.873l0.009-0.007 0.2 0.226 429.351 492.307c3.178 4.604 5.025 11.193 1.568 17.871-1.564 3.019-3.623 5.477-6.253 7.172-2.648 1.705-5.674 2.504-8.951 2.504h-151.697l153.289 234.024c3.489 5.088 3.482 11.842-0.028 16.922-3.249 4.705-8.294 7.998-14.972 7.998h-214.553c-6.677 0-11.727-3.294-14.975-7.998zM565.269 568.175l-333.997-382.333 114.464 264.305c1.617 4.682 1.688 9.795-1.772 14.809l-0.2 0.29-0.253 0.244c-2.928 2.828-7.796 6.169-13.181 6.169h-130.972l184.078 355.459h173.656l-154.596-234.016c-3.496-5.088-3.485-11.847 0.021-16.928 3.249-4.703 8.298-7.998 14.975-7.998h147.777z" />
<glyph unicode="&#xe91b;" glyph-name="info_icon4" horiz-adv-x="942" d="M486.371 847.054c-16.101 23.060-30.31 44.276-43.569 63.647-1.892 2.767-4.735 5.535-7.578 7.379-11.362 7.379-26.518 3.69-34.096-7.379-12.313-19.371-26.52-39.664-43.568-63.647-74.823-107.001-186.584-268.424-186.584-360.667 0-67.334 28.414-128.217 73.876-172.491 45.462-43.356 107.972-71.029 177.112-71.029s131.65 27.673 177.111 71.95c45.466 44.278 73.88 105.157 73.88 172.491 0 92.244-111.763 252.744-186.585 359.745zM564.982 348.025c-36.938-35.975-87.134-57.188-143.016-57.188-55.88 0-106.078 22.139-143.016 57.188-36.938 35.975-58.722 84.865-58.722 139.284 0 77.485 107.025 231.529 178.060 333.917 8.524 11.991 16.101 23.983 23.678 34.13 7.578-10.147 15.155-22.138 23.679-34.13 71.033-103.311 178.057-256.432 178.057-333.917 0-54.419-22.729-103.309-58.72-139.284zM568.787 503.882c-13.263 0.922-24.629-9.228-25.575-22.143-0.95-20.3-7.582-39.674-18.002-56.279-10.42-16.609-25.575-31.371-43.577-40.595-11.366-6.459-16.105-21.221-9.474-32.293 7.582-12.919 22.737-16.609 34.107-10.15 25.575 13.84 46.42 34.136 60.629 57.205 15.155 23.065 23.683 50.741 24.629 79.344 0.95 12.919-9.474 23.99-22.737 24.912zM279.135 128.36c21.135 0 37.97-6.881 50.504-20.644 12.78-13.763 19.169-32.195 19.169-55.296v-113.541h-47.555v110.223c0 11.059-2.703 19.661-8.11 25.805s-13.025 9.216-22.856 9.216c-10.813 0-19.292-3.564-25.436-10.691-5.898-7.127-8.847-17.449-8.847-30.966v-103.588h-47.555v110.223c0 11.059-2.703 19.661-8.11 25.805s-13.025 9.216-22.856 9.216c-10.568 0-19.046-3.564-25.436-10.691-6.144-7.127-9.216-17.449-9.216-30.966v-103.588h-47.555v184.32h47.555v-19.538c11.059 16.466 28.14 24.699 51.241 24.699 22.61 0 39.322-8.847 50.135-26.542 12.288 17.695 30.597 26.542 54.927 26.542zM536.654 123.199h47.555v-184.32h-47.555v21.75c-14.254-17.94-34.284-26.911-60.088-26.911-24.576 0-45.711 9.339-63.406 28.017-17.45 18.924-26.174 42.025-26.174 69.304s8.724 50.258 26.174 68.936c17.695 18.924 38.83 28.385 63.406 28.385 25.805 0 45.834-8.97 60.088-26.911v21.75zM448.918-6.562c9.585-9.585 21.75-14.377 36.495-14.377s26.911 4.792 36.495 14.377c9.83 9.83 14.746 22.364 14.746 37.601s-4.915 27.648-14.746 37.233c-9.585 9.83-21.75 14.746-36.495 14.746s-26.911-4.915-36.495-14.746c-9.585-9.585-14.377-21.996-14.377-37.233s4.792-27.771 14.377-37.601zM804.647-61.121h-54.927l-39.813 56.033-40.182-56.033h-54.927l67.461 94.003-64.512 90.317h54.927l37.233-51.978 37.233 51.978h54.559l-64.512-89.948 67.461-94.372z" />
<glyph unicode="&#xe91c;" horiz-adv-x="1097" d="M1078.711 497.906v-76.361l-436.954 4.242 233.324-369.080-67.877-42.423-229.082 377.565-229.083-377.565-67.877 42.423 233.326 369.080-436.955-4.242v76.361l436.955-4.242-233.326 369.080 67.877 42.422 229.083-377.563 229.082 377.563 67.877-42.422-233.324-369.080 436.954 4.242z" />
<glyph unicode="&#xe91d;" horiz-adv-x="1097" d="M1078.711 497.906h14.629v14.772l-14.768-0.143 0.139-14.629zM1078.711 421.545l-0.139-14.628 14.768-0.143v14.771h-14.629zM641.757 425.787l0.142 14.628-26.861 0.261 14.354-22.706 12.365 7.817zM875.081 56.708l7.753-12.405 12.471 7.797-7.856 12.427-12.368-7.819zM807.205 14.285l-12.507-7.585 7.695-12.676 12.566 7.856-7.753 12.405zM578.123 391.85l12.507 7.588-12.507 20.612-12.507-20.612 12.507-7.588zM349.039 14.285l-7.753-12.405 12.57-7.856 7.69 12.676-12.507 7.585zM281.163 56.708l-12.365 7.819-7.857-12.427 12.469-7.797 7.753 12.405zM514.488 425.787l12.365-7.817 14.354 22.706-26.861-0.261 0.142-14.628zM77.533 421.545h-14.628v-14.771l14.77 0.143-0.142 14.628zM77.533 497.906l0.142 14.629-14.77 0.143v-14.772h14.628zM514.488 493.665l-0.142-14.629 26.861-0.26-14.354 22.706-12.365-7.817zM281.163 862.743l-7.753 12.406-12.469-7.793 7.857-12.429 12.365 7.817zM349.039 905.166l12.507 7.588-7.69 12.673-12.57-7.856 7.753-12.405zM578.123 527.603l-12.507-7.589 12.507-20.612 12.507 20.612-12.507 7.589zM807.205 905.166l7.753 12.405-12.566 7.856-7.695-12.673 12.507-7.588zM875.081 862.743l12.368-7.817 7.856 12.429-12.471 7.793-7.753-12.406zM641.757 493.665l-12.365 7.817-14.354-22.706 26.861 0.26-0.142 14.629zM1064.082 497.906v-76.361h29.257v76.361h-29.257zM1078.857 436.173l-436.958 4.242-0.284-29.256 436.957-4.242 0.285 29.256zM629.392 417.97l233.328-369.082 24.73 15.638-233.328 369.077-24.73-15.634zM867.328 69.113l-67.877-42.423 15.506-24.81 67.877 42.423-15.506 24.81zM819.712 21.877l-229.083 377.561-25.013-15.176 229.081-377.561 25.015 15.177zM565.616 399.438l-229.083-377.561 25.013-15.177 229.083 377.561-25.013 15.176zM356.792 26.69l-67.877 42.423-15.506-24.81 67.877-42.423 15.506 24.81zM293.527 48.889l233.326 369.082-24.73 15.634-233.326-369.077 24.73-15.638zM514.346 440.415l-436.955-4.242 0.284-29.256 436.955 4.242-0.284 29.256zM92.161 421.545v76.361h-29.257v-76.361h29.257zM77.391 483.278l436.955-4.242 0.284 29.256-436.955 4.243-0.284-29.256zM526.853 501.481l-233.326 369.079-24.73-15.634 233.326-369.079 24.73 15.634zM288.916 850.338l67.877 42.422-15.506 24.81-67.877-42.422 15.506-24.81zM336.532 897.578l229.083-377.563 25.013 15.176-229.083 377.563-25.013-15.176zM590.629 520.014l229.083 377.563-25.015 15.176-229.081-377.563 25.013-15.176zM799.451 892.761l67.877-42.422 15.506 24.81-67.877 42.422-15.506-24.81zM862.72 870.56l-233.328-369.079 24.73-15.634 233.328 369.079-24.73 15.634zM641.899 479.036l436.958 4.242-0.285 29.256-436.957-4.243 0.284-29.256z" />
<glyph unicode="&#xe91e;" glyph-name="loop" horiz-adv-x="998" d="M335.36 939.519c-181.76 0-327.68-148.481-327.68-327.681 0-181.76 148.48-327.68 327.68-327.68 79.36 0 151.040 28.16 207.36 74.24l35.84-35.84c-5.12-5.12-12.8-12.8-17.92-17.92-10.24-12.8-10.24-33.277 2.56-43.517l296.96-296.963c12.8-12.8 33.28-12.8 46.080 0l76.8 76.8c12.8 12.8 12.8 33.28 0 46.080-296.96 296.96-207.36 204.8-294.4 294.4-12.8 12.8-35.84 12.8-46.080 0l-15.36-15.36-35.84 35.843c46.080 56.32 74.24 127.997 74.24 207.357-2.56 181.761-148.48 330.241-330.24 330.241zM335.36 872.959c145.92 0 263.68-117.761 263.68-263.681s-117.76-263.68-263.68-263.68c-145.92 0-263.68 117.76-263.68 263.68s117.76 263.681 263.68 263.681zM663.040 309.757c53.76-56.32 48.64-48.64 250.88-248.32l-30.72-30.717-248.32 250.877 28.16 28.16zM335.36 738.875c-12.8 0-23.040-10.241-23.040-23.041v-84.477h-84.48c-12.8 0-23.040-10.243-23.040-23.043s10.24-23.040 23.040-23.040h84.48v-84.48c0-12.8 10.24-23.037 23.040-23.037s23.040 10.237 23.040 23.037v84.48h84.48c12.8 0 23.040 10.24 23.040 23.040s-10.24 23.043-23.040 23.043h-84.48v84.477c0 12.8-10.24 23.041-23.040 23.041z" />
<glyph unicode="&#xe91f;" glyph-name="minus" horiz-adv-x="5530" d="M4948.152 754.973c-38.892 0-77.783 0-116.695 0-106.025 0-212.050 0-318.075 0-156.221 0-311.828 0-468.050 0-191.345 0-382.075 0-573.42 0-209.551 0-419.103 0-628.654 0-211.436 0-422.871 0-634.286 0-197.011 0-394.639 0-591.641 0-165.632 0-331.891 0-497.523 0-119.833 0-240.292 0-360.124 0-57.092 0-113.558 0.512-170.65 0-2.511 0-5.020 0-7.528 0-96.618 0-197.63-34.279-266.015-90.044-65.249-53.209-114.813-140.698-110.422-216.928 4.393-79.301 36.389-161.673 110.422-216.928 73.404-55.255 164.377-90.044 266.015-90.044 38.898 0 77.795 0 116.695 0 106.029 0 212.058 0 318.087 0 156.221 0 311.814 0 468.036 0 191.355 0 382.083 0 573.444 0 209.551 0 419.082 0 628.634 0 211.436 0 422.871 0 634.307 0 196.997 0 394.629 0 591.626 0 165.622 0 331.899 0 497.521 0 119.828 0 240.292 0 360.12 0 57.098 0 113.562-0.512 170.66 0 2.499 0 5.018 0 7.516 0 96.625 0 197.632 34.279 266.015 90.044 65.249 53.209 114.196 140.698 110.428 216.928-4.383 79.301-36.393 161.673-110.428 216.928-73.4 55.255-163.738 90.044-266.015 90.044z" />
<glyph unicode="&#xe920;" horiz-adv-x="871" d="M554.598 915.383h-383.903c-10.688 0-19.353-8.664-19.353-25.477v-702.061c0-4.564 8.664-13.229 19.353-13.229h530.097c10.689 0 19.354 8.665 19.354 13.229v555.865c0 9.207-1.231 12.17-3.401 14.352l-153.92 153.92c-2.183 2.169-5.146 3.4-8.227 3.4z" />
<glyph unicode="&#xe921;" horiz-adv-x="871" d="M561.409 913.383v-156.738h156.74l-156.74 156.738z" />
<glyph unicode="&#xe922;" horiz-adv-x="871" d="M323.49 474.58c-4.601 0-9.020 1.495-12.791 4.312-13.77 10.332-15.621 21.826-14.748 29.659 2.407 21.535 29.036 44.076 79.168 67.039 19.896 43.598 38.825 97.317 50.108 142.199-13.201 28.732-26.034 66.009-16.68 87.874 3.281 7.659 7.368 13.532 15.001 16.072 3.015 1.005 10.634 2.275 13.438 2.275 6.667 0 12.528-8.585 16.68-13.876 3.904-4.974 12.752-15.516-4.933-89.977 17.831-36.827 43.097-74.34 67.303-100.030 17.343 3.135 32.263 4.737 44.42 4.737 20.715 0 33.269-4.828 38.387-14.776 4.233-8.229 2.501-17.844-5.157-28.572-7.368-10.305-17.528-15.754-29.367-15.754-16.086 0-34.816 10.157-55.703 30.225-37.526-7.846-81.351-21.84-116.775-37.33-11.059-23.467-21.654-42.37-31.524-56.233-13.558-18.981-25.251-27.844-36.827-27.844zM358.705 542.387c-28.269-15.885-39.79-28.942-40.624-36.298-0.131-1.216-0.488-4.418 5.702-9.153 1.972 0.621 13.48 5.874 34.923 45.45zM539.095 601.147c10.78-8.294 13.412-12.488 20.463-12.488 3.096 0 11.92 0.133 16.007 5.835 1.97 2.765 2.736 4.536 3.041 5.488-1.628 0.861-3.782 2.606-15.543 2.606-6.68-0.013-15.079-0.303-23.968-1.44zM440.281 688.213c-9.458-32.727-21.944-68.059-35.372-100.058 27.646 10.728 57.701 20.094 85.929 26.722-17.857 20.741-35.703 46.642-50.557 73.336zM432.252 800.147c-1.296-0.437-17.593-23.242 1.27-42.541 12.552 27.977-0.702 42.727-1.27 42.541z" />
<glyph unicode="&#xe923;" horiz-adv-x="871" d="M700.793 174.614h-530.097c-10.688 0-19.353 8.665-19.353 19.354v205.521h568.803v-205.521c0-10.689-8.665-19.354-19.354-19.354z" />
<glyph unicode="&#xe924;" horiz-adv-x="871" d="M295.33 214.299h-21.707v133.286h38.335c5.663 0 11.271-0.9 16.813-2.713 5.543-1.811 10.517-4.523 14.92-8.133 4.405-3.612 7.963-7.992 10.676-13.109 2.713-5.12 4.074-10.874 4.074-17.277 0-6.758-1.15-12.87-3.44-18.36-2.288-5.488-5.488-10.105-9.589-13.835-4.103-3.73-9.048-6.628-14.828-8.678-5.782-2.050-12.183-3.070-19.168-3.070h-16.099v-48.111h0.013zM295.33 331.129v-52.806h19.896c2.645 0 5.264 0.451 7.87 1.362 2.593 0.9 4.974 2.381 7.144 4.432 2.168 2.050 3.915 4.909 5.238 8.586s1.985 8.227 1.985 13.65c0 2.17-0.305 4.684-0.9 7.501-0.608 2.83-1.839 5.543-3.704 8.135-1.878 2.593-4.497 4.763-7.872 6.508-3.373 1.745-7.843 2.619-13.386 2.619l-16.271 0.013z" />
<glyph unicode="&#xe925;" horiz-adv-x="871" d="M491.553 284.646c0-10.966-1.177-20.345-3.532-28.123-2.353-7.778-5.329-14.286-8.955-19.537s-7.684-9.379-12.21-12.395c-4.523-3.015-8.889-5.264-13.109-6.787-4.218-1.508-8.081-2.473-11.573-2.896-3.492-0.397-6.085-0.61-7.778-0.61h-50.453v133.286h40.147c11.218 0 21.073-1.787 29.565-5.331s15.556-8.292 21.164-14.192c5.608-5.9 9.789-12.634 12.567-20.16 2.778-7.541 4.166-15.292 4.166-23.256zM427.174 230.213c14.709 0 25.319 4.697 31.827 14.101 6.508 9.406 9.761 23.031 9.761 40.875 0 5.543-0.66 11.033-1.983 16.456-1.338 5.423-3.889 10.332-7.687 14.737-3.795 4.403-8.955 7.963-15.462 10.674-6.508 2.713-14.948 4.074-25.319 4.074h-12.658v-100.916h21.521z" />
<glyph unicode="&#xe926;" horiz-adv-x="871" d="M545.088 331.129v-41.958h55.703v-14.828h-55.703v-60.043h-22.064v133.286h83.362v-16.456h-61.298z" />
<glyph unicode="&#xe927;" glyph-name="pdf_small" horiz-adv-x="964" d="M935.129 700.48v0.001l-245.537 255.134c-4.626 4.807-11.017 7.526-17.691 7.526h-365.949c-44.279 0-80.298-36.001-80.298-80.267v-253.344h-142.281c-33.966 0-61.593-27.615-61.593-61.577v-278.106c0-33.961 27.627-61.579 61.593-61.579h142.281v-160.798c0-44.207 36.029-80.143 80.298-80.143h555.745c44.261 0 80.294 35.912 80.294 80.101v616.025c0 6.351-2.464 12.453-6.861 17.028zM863.895 703.666h-181.381v188.471l181.381-188.471zM83.372 277.384c-6.88 0-12.477 5.602-12.477 12.463v278.106c0 6.862 5.599 12.463 12.477 12.463h500.484c6.879 0 12.477-5.6 12.477-12.463v-278.106c0-6.861-5.598-12.463-12.477-12.463h-500.484zM892.874 67.427c0-17.047-13.963-30.985-31.184-30.985h-555.739c-17.214 0-31.183 13.944-31.183 31.021v160.804h309.088c33.965 0 61.595 27.618 61.595 61.579v278.106c0 33.962-27.63 61.577-61.595 61.577h-309.088v253.344c0 17.169 13.989 31.153 31.183 31.153h327.447v-234.918c0-13.563 10.999-24.557 24.558-24.557h234.918v-587.125zM243.208 410.441c6.351 4.415 11.462 10.415 15.399 17.804 4.13 7.752 6.029 17.006 6.029 27.484v0.001c-0.002 13.654-3.331 25.379-10.482 34.676-6.903 8.974-15.646 14.981-26.146 17.734-6.848 1.832-20.411 2.59-39.77 2.59h-57.607v-171.25h44.192v60.053h14.937c14.672 0 26.253 0.76 34.511 2.396v-0.001l0.112 0.025c6.528 1.423 12.807 4.301 18.825 8.488zM243.208 410.441l0.001 0.001c0 0-0.001-0.001-0.001-0.001zM186.391 438.62h-11.569v33.129h9.506c11.677 0 18.822-0.378 22.012-0.981l0.048-0.009c3.965-0.716 7.057-2.439 9.524-5.169l0.001-0.001c2.261-2.5 3.55-5.771 3.55-10.295v-0.002c0.001-3.61-0.91-6.526-2.587-8.979-1.692-2.477-4.036-4.348-7.26-5.605-1.359-0.529-3.889-1.091-7.958-1.491-3.97-0.39-9.043-0.596-15.266-0.596zM396.419 361.576l4.195-4.32c8.181 7.939 14.319 18.178 18.551 30.487l0.001 0.002c3.529 10.274 5.213 22.264 5.213 35.839 0 15.339-1.781 28.585-5.536 39.575-3.724 10.901-9.215 20.272-16.533 27.99-7.395 7.799-16.32 13.245-26.668 16.295l-0.016 0.005c-7.776 2.268-18.556 3.281-31.985 3.281h-64.776v-171.25h66.513c12.169 0 22.344 1.138 30.269 3.644l0.021 0.012c10.132 3.247 18.552 7.885 24.953 14.125l-4.203 4.314zM396.419 361.576c-5.574-5.428-13.103-9.663-22.588-12.705-7.095-2.247-16.578-3.367-28.452-3.367h-60.489v159.202h58.752c13.248 0 23.348-1.013 30.298-3.040 9.338-2.752 17.34-7.639 24-14.662s11.729-15.62 15.203-25.792c3.475-10.172 5.212-22.714 5.212-37.628 0-13.103-1.628-24.397-4.886-33.882-3.983-11.584-9.666-20.958-17.050-28.126zM369.409 384.937l-0.001-0.001c-2.596-2.35-5.99-4.145-10.395-5.245l-0.027-0.007c-3.197-0.814-9.028-1.334-17.951-1.334h-17.977v93.4h8.42c13.193 0 21.33-0.529 25.060-1.373v0l0.052-0.011c5.092-1.104 9.015-3.15 12.018-5.986s5.59-7.021 7.537-12.928c1.873-5.682 2.956-14.375 2.956-26.458 0-12.045-1.074-21.088-2.997-27.402-2.029-6.663-4.416-10.592-6.695-12.654zM554.972 471.75h6.024v38.98h-121.188v-171.25h44.192v67.654h66.462v38.98h-66.462v25.636h70.972z" />
<glyph unicode="&#xe928;" glyph-name="play_button" horiz-adv-x="943" d="M444.332 897.528c-242.532 0-439.846-197.315-439.846-439.846s197.314-439.845 439.846-439.845c242.53 0 439.846 197.314 439.846 439.845s-197.316 439.846-439.846 439.846zM672.509 445.572l-322.553-219.923c-2.478-1.687-5.366-2.551-8.255-2.551-2.345 0-4.706 0.557-6.846 1.701-4.809 2.536-7.815 7.521-7.815 12.961v439.845c0 5.44 3.005 10.424 7.815 12.961 4.808 2.551 10.614 2.199 15.115-0.85l322.554-219.923c3.988-2.727 6.393-7.258 6.393-12.111 0-4.852-2.405-9.383-6.407-12.11z" />
<glyph unicode="&#xe929;" glyph-name="plus" horiz-adv-x="853" d="M807.025 592.838h-320.826v320.824c0 14.615-19.845 46.305-59.535 46.305-39.687 0-59.532-31.692-59.532-46.305v-320.827h-320.826c-14.613 0.003-46.305-19.842-46.305-59.532 0-39.687 31.692-59.535 46.305-59.535h320.826v-320.826c0-14.612 19.845-46.305 59.535-46.305s59.535 31.693 59.535 46.305v320.826h320.826c14.612 0 46.305 19.845 46.305 59.535 0 39.694-31.696 59.535-46.309 59.535z" />
<glyph unicode="&#xe92a;" glyph-name="star" horiz-adv-x="1081" d="M528.122 934.944l-158.199-320.581-353.791-51.421 256.005-249.524-60.432-352.364 316.418 166.354 316.439-166.354-60.433 352.364 256.006 249.524-353.792 51.421-158.219 320.581z" />
<glyph unicode="&#xe92b;" horiz-adv-x="994" d="M487.185 235.529l0.003-0.001c5.451-3.563 13.361-1.852 16.906 3.575l-16.909-3.574zM487.185 235.529l-148.32 96.577c-5.647 3.677-7.25 11.268-3.578 16.915l11.92 18.304M487.185 235.529l-139.978 131.796M347.207 367.325l23.965-15.609 13.88 21.302-23.971 15.612 102.502 157.407 122.502-79.768 13.879 21.302-122.506 79.771 12.865 19.756c3.682 5.644 11.246 7.276 16.918 3.577l0.001-0.001 148.311-96.577c5.645-3.676 7.25-11.267 3.577-16.914l-12.868-19.763-27.931 18.187-13.879-21.302 27.936-18.192-102.504-157.408-126.455 82.349-1.214-1.865-12.665-19.438 126.46-82.349-11.914-18.295-156.889 128.22zM777.333-10.572v161.050l96.78-63.022c30.867-20.088 72.564-11.754 93.010 19.646 20.231 31.061 11.409 72.781-19.646 93.006l-170.146 110.795v394.311c0 28.049-22.819 50.868-50.868 50.868h-120.296c-14.612 34.84-47.144 60.389-86.071 65.006v4.234c0 68.57-55.783 124.352-124.352 124.352l-2.274-0.021c-67.387-1.211-122.079-58.692-122.079-128.023v-0.549c-38.86-4.624-71.365-30.169-85.971-65h-120.397c-28.049 0.001-50.867-22.819-50.867-50.866v-715.786c0-28.053 22.819-50.872 50.868-50.872h661.441c28.049 0 50.868 22.819 50.868 50.872zM933.599 178.804v0c19.316-12.574 24.791-38.52 12.221-57.828-12.613-19.364-38.499-24.809-57.829-12.218v0l-254.151 165.504c41.088 63.086 41.625 63.914 42.067 64.597 0.187 0.286 0.356 0.549 3.541 5.439l254.151-165.493zM294.591 796.408h2.226v25.222c0 55.683 43.643 101.639 97.097 102.599 0.001 0 0.004 0 0.007 0l1.822 0.021c0.004 0 0.009 0 0.013 0 54.544-0.007 98.915-44.387 98.915-98.928v-0.008l0.092-26.686 0.007-2.219h12.705c44.974 0 81.559-36.585 81.559-81.553v-29.156h-386.481v29.154c0 44.97 36.585 81.553 81.549 81.553h10.486zM65.025 730.657h113.338c-0.781-5.148-1.232-10.415-1.232-15.801v-54.581h437.33v54.581c0 5.384-0.45 10.653-1.23 15.801h113.235c14.029 0 25.443-11.414 25.443-25.443v-377.755l-79.887 52.019-16.357-25.117-32.424 21.117 57.197 87.835c11.319 17.398 6.38 40.763-11.004 52.089v0l-148.311 96.577c-17.297 11.255-40.647 6.585-52.101-10.998v0l-155.038-238.087c-11.319-17.399-6.38-40.764 11.004-52.089v-0.001l148.321-96.577c17.295-11.254 40.635-6.583 52.089 10.998v0.001l57.199 87.837 32.422-21.114-16.36-25.122 153.25-99.794v-177.605c0-14.029-11.415-25.449-25.443-25.449h-661.442c-14.028 0-25.443 11.42-25.443 25.449l0.001 715.786c0 14.029 11.415 25.443 25.443 25.443zM596.473 334.372l12.891 19.796 32.424-21.115-12.891-19.794-32.424 21.114z" />
<glyph unicode="&#xe92c;" horiz-adv-x="994" d="M395.745 784.624c28.54 0 51.748 23.208 51.748 51.743s-23.208 51.749-51.748 51.749c-28.541 0-51.749-23.214-51.749-51.749s23.208-51.743 51.749-51.743zM395.745 862.69c14.51 0 26.324-11.809 26.324-26.324 0-14.51-11.815-26.32-26.324-26.32-14.511 0-26.324 11.81-26.324 26.32 0 14.515 11.813 26.324 26.324 26.324z" />
<glyph unicode="&#xe92d;" horiz-adv-x="994" d="M527.397 729.958v2.226h-205.5v-25.423h205.5v23.197z" />
<glyph unicode="&#xe92e;" horiz-adv-x="994" d="M303.503 729.958v2.226h-39.402v-25.423h39.402v23.197z" />
<glyph unicode="&#xe92f;" horiz-adv-x="994" d="M629.448 100.242h-1.604v26.804c0 24.343-19.797 44.14-44.14 44.14h-375.921c-24.342 0-44.139-19.797-44.139-44.14v-26.805h-1.604c-22.652 0-41.078-18.426-41.078-41.083v-60.78h549.563v60.781c0 22.657-18.425 41.083-41.077 41.083zM469.495 110.289h132.926v-10.047h-413.353v26.804c0 10.317 8.394 18.717 18.715 18.717h375.921c7.162 0 13.352-4.081 16.477-10.049h-132.912v-25.425h2.226zM296.393 62.019h-149.691c1.346 7.275 7.698 12.797 15.338 12.797h467.409c8.63 0 15.652-7.024 15.652-15.658v-35.355h-498.714v12.793h152.233v25.423h-2.226z" />
<glyph unicode="&#xe930;" horiz-adv-x="994" d="M904.775 160.286l1.214 1.865-112.695 73.373-13.873-21.306 112.696-73.373 12.658 19.441z" />
<glyph unicode="&#xe931;" horiz-adv-x="994" d="M778.301 242.571l1.215 1.865-39.963 26.023-13.874-21.306 39.963-26.023 12.659 19.441z" />
<glyph unicode="&#xe932;" horiz-adv-x="994" d="M384.47 531.184l1.242 1.848-21.105 14.189-75.133-111.743 21.105-14.189 73.891 109.896z" />
<glyph unicode="&#xe933;" horiz-adv-x="994" d="M418.944 582.493l1.241 1.848-21.105 14.176-23.273-34.645 21.105-14.177 22.032 32.8z" />
<glyph unicode="&#xe934;" horiz-adv-x="994" d="M825.912 592.145v2.226h-25.425v-222.35h25.425v220.124z" />
<glyph unicode="&#xe935;" horiz-adv-x="994" d="M825.912 682.873v2.226h-25.425v-58.326h25.425v56.1z" />
<glyph unicode="&#xe936;" horiz-adv-x="994" d="M822.072 89.772v2.226h-25.425v-105.438h25.425v103.212z" />
<glyph unicode="&#xe937;" horiz-adv-x="994" d="M112.185 515.014v2.226h-25.424v-272.66h25.424v270.434z" />
<glyph unicode="&#xe938;" horiz-adv-x="994" d="M112.185 613.429v2.226h-25.424v-59.258h25.424v57.032z" />
<glyph unicode="&#xe939;" horiz-adv-x="1008" d="M979.39 608.637h-30.912v252.528c0 3.82-1.298 7.438-3.974 10.116-2.678 2.677-6.296 3.975-10.117 3.975h-252.526v30.912c0 3.82-1.298 7.438-3.976 10.116s-6.296 3.975-10.115 3.975c-3.821 0-7.438-1.298-10.115-3.975s-3.976-6.296-3.976-10.116v-30.912h-252.528c-3.819 0-7.438-1.298-10.115-3.975s-3.976-6.296-3.976-10.116v-252.528h-30.91c-3.821 0-7.438-1.298-10.117-3.974-2.677-2.678-3.974-6.296-3.974-10.117 0-3.819 1.298-7.438 3.974-10.115 2.678-2.677 6.296-3.974 10.117-3.974h30.91v-252.528c0-3.821 1.299-7.438 3.976-10.115s6.296-3.976 10.115-3.976h252.528v-30.912c0-3.819 1.298-7.438 3.976-10.115s6.294-3.976 10.115-3.976c3.819 0 7.438 1.299 10.115 3.976s3.976 6.296 3.976 10.115v30.912h252.526c3.821 0 7.438 1.298 10.117 3.976 2.677 2.677 3.974 6.294 3.974 10.115v252.528h30.912c3.819 0 7.438 1.298 10.115 3.974s3.976 6.296 3.976 10.115c0 8.546-7.123 14.091-14.091 14.091zM415.242 847.074h36.35v-36.35h-36.35v36.35zM451.592 342.019h-36.35v36.349h36.35v-36.349zM920.298 342.019h-36.35v36.349h36.35v-36.349zM920.298 608.637h-30.912c-3.821 0-7.438-1.298-10.117-3.974-2.677-2.678-3.974-6.296-3.974-10.117 0-3.819 1.298-7.438 3.974-10.115 2.678-2.677 6.296-3.974 10.117-3.974h30.912v-173.906h-50.442c-3.819 0-7.438-1.298-10.115-3.974-2.678-2.678-3.976-6.296-3.976-10.117v-50.44h-173.904v30.91c0 3.821-1.298 7.438-3.976 10.117-2.677 2.677-6.296 3.974-10.115 3.974-3.821 0-7.438-1.298-10.115-3.974-2.678-2.678-3.976-6.296-3.976-10.117v-30.91h-173.904v50.44c0 3.821-1.298 7.438-3.976 10.117-2.677 2.677-6.296 3.974-10.115 3.974h-50.442v173.906h30.912c3.819 0 7.438 1.298 10.115 3.974 2.678 2.677 3.976 6.296 3.976 10.115 0 3.821-1.298 7.438-3.976 10.117-2.677 2.677-6.296 3.974-10.115 3.974h-30.912v173.906h50.442c3.819 0 7.438 1.298 10.115 3.974 2.678 2.678 3.976 6.296 3.976 10.117v50.44h173.904v-30.911c0-3.82 1.298-7.438 3.976-10.116s6.294-3.975 10.115-3.975c3.819 0 7.438 1.298 10.115 3.975s3.976 6.296 3.976 10.116v30.911h173.904v-50.44c0-3.821 1.298-7.438 3.976-10.117 2.677-2.677 6.296-3.974 10.115-3.974h50.442v-173.906zM920.298 810.724h-36.35v36.35h36.35v-36.35z" />
<glyph unicode="&#xe93a;" horiz-adv-x="1008" d="M296.040 949.477v4h-208.556v-28.921h208.556v24.921z" />
<glyph unicode="&#xe93b;" horiz-adv-x="1008" d="M56.694 949.477v4h-42.864v-28.921h42.864v24.921z" />
<glyph unicode="&#xe93c;" horiz-adv-x="1008" d="M945.694-48.158h4v208.557h-28.92v-208.557h24.92z" />
<glyph unicode="&#xe93d;" horiz-adv-x="1008" d="M945.694 191.189h4v42.864h-28.92v-42.864h24.92z" />
<glyph unicode="&#xe93e;" horiz-adv-x="1008" d="M32.606 777.267h114.328" />
<glyph unicode="&#xe93f;" horiz-adv-x="1008" d="M32.606 714.808h114.328" />
<glyph unicode="&#xe940;" horiz-adv-x="1008" d="M32.606 651.294h114.328" />
<glyph unicode="&#xe941;" horiz-adv-x="1008" d="M32.606 588.835h114.328" />
<glyph unicode="&#xe942;" horiz-adv-x="1008" d="M32.606 525.32h114.328" />
<glyph unicode="&#xe943;" horiz-adv-x="1008" d="M32.606 462.866h114.328" />
<glyph unicode="&#xe944;" horiz-adv-x="1008" d="M32.606 400.406h114.328" />
<glyph unicode="&#xe945;" horiz-adv-x="1008" d="M32.606 336.893h114.328" />
<glyph unicode="&#xe946;" horiz-adv-x="1008" d="M32.606 274.434h114.328" />
<glyph unicode="&#xe947;" horiz-adv-x="1008" d="M32.606 210.918h114.328" />
<glyph unicode="&#xe948;" horiz-adv-x="1008" d="M32.606 148.462h114.328" />
<glyph unicode="&#xe949;" horiz-adv-x="1008" d="M32.606 84.947h114.328" />
<glyph unicode="&#xe94a;" horiz-adv-x="1008" d="M32.606 22.49h114.328" />
<glyph unicode="&#xe94b;" horiz-adv-x="1008" d="M226.328-32.557h623.512v229.715h-587.52" />
<glyph unicode="&#xe94c;" horiz-adv-x="1008" d="M731.278 54.248c15.786 0 28.582 12.797 28.582 28.582s-12.797 28.582-28.582 28.582c-15.786 0-28.582-12.797-28.582-28.582s12.797-28.582 28.582-28.582z" />
<glyph unicode="&#xe94d;" horiz-adv-x="1008" d="M262.322 861.955h-229.715v-894.512h229.715v894.512z" />
<glyph unicode="&#xe94e;" horiz-adv-x="1008" d="M571.68 684.8h26.88v-156.8h-30.912v124.096l-29.568-8.288-7.616 26.432 41.216 14.56zM809.282 640v-112h-28v65.408l-28.448-44.8h-3.584l-28.672 45.248v-65.856h-27.776v112h28.448l29.792-47.040 29.792 47.040h28.448z" />
<glyph unicode="&#xe94f;" horiz-adv-x="1055" d="M1034.186-30.813h-219.563l17.669 704.005h18.991c20.651 0 37.461 16.296 37.461 36.327v87.398c0 20.032-16.811 36.328-37.461 36.328h-145.265v33.635c0 42.793-35.901 77.606-80.038 77.606h-189.362c-44.138 0-80.038-34.813-80.038-77.606v-33.635h-145.265c-20.651 0-37.461-16.295-37.461-36.328v-87.398c0-20.032 16.811-36.327 37.461-36.327h18.991l17.669-704.005h-219.563c-7.127 0-12.895-5.599-12.895-12.504s5.767-12.504 12.895-12.504h1005.776c7.128 0 12.895 5.598 12.895 12.504 0 6.904-5.767 12.504-12.895 12.504zM382.368 866.879c0 29.001 24.342 52.598 54.249 52.598h189.362c29.907 0 54.249-23.597 54.249-52.598v-33.635h-297.86v33.635zM211.313 698.2c-6.434 0-11.672 5.080-11.672 11.318v87.398c0 6.24 5.238 11.32 11.672 11.32h639.969c6.434 0 11.674-5.080 11.674-11.32v-87.398c0-6.239-5.239-11.318-11.674-11.318h-639.969zM788.82-30.813h-515.044l-17.667 704.005h550.378l-17.667-704.005z" />
<glyph unicode="&#xe950;" horiz-adv-x="1055" d="M350.56 223.414c2.077 0 4.194 0.489 6.146 1.52 6.259 3.303 8.575 10.893 5.176 16.961-15.262 27.187-23.322 58.025-23.322 89.194 0 103.059 86.46 186.899 192.74 186.899 34.818 0 68.796-9.205 98.388-26.242l-4.79-0.011c-7.128-0.012-12.882-5.624-12.87-12.528 0.012-6.9 5.781-12.48 12.895-12.48 0.012 0 0.012 0 0.025 0l44.024 0.092c7.101 0.012 12.856 5.593 12.868 12.474l0.101 42.859c0.012 6.906-5.742 12.516-12.87 12.535 0 0-0.012 0-0.025 0-7.101 0-12.882-5.581-12.895-12.473l-0.043-17.268c-36.462 24.615-80.021 38.051-124.809 38.051-120.497 0-218.528-95.061-218.528-211.906 0-35.326 9.142-70.304 26.444-101.148 2.341-4.164 6.774-6.527 11.345-6.527z" />
<glyph unicode="&#xe951;" horiz-adv-x="1055" d="M724.036 331.086c0-103.058-86.458-186.897-192.739-186.897-36.858 0-72.481 10.229-103.132 29.094l6.94 0.016c7.126 0.012 12.882 5.624 12.868 12.528-0.012 6.9-5.779 12.48-12.895 12.48-0.012 0-0.012 0-0.025 0l-44.035-0.093c-7.101-0.011-12.857-5.592-12.87-12.479l-0.088-42.853c-0.012-6.906 5.742-12.516 12.87-12.528 0.012 0 0.012 0 0.025 0 7.115 0 12.882 5.579 12.895 12.479l0.034 16.269c36.983-25.795 81.337-39.922 127.414-39.922 120.497 0 218.528 95.061 218.528 211.906 0 36.315-9.646 72.153-27.879 103.658-3.488 6.020-11.371 8.144-17.554 4.78-6.208-3.382-8.425-11.002-4.937-17.028 16.081-27.767 24.581-59.375 24.581-91.411z" />
<glyph unicode="&#xe952;" horiz-adv-x="1055" d="M520.836 478.546c-3.863-4.928-94.585-121.434-94.585-174.864 0-55.606 45.234-100.848 100.848-100.848s100.848 45.234 100.848 100.848c0 53.43-90.722 169.936-94.585 174.864-3.029 3.848-9.506 3.848-12.527 0zM527.099 218.731c-46.839 0-84.952 38.105-84.952 84.952 0 36.873 56.449 119.194 84.952 156.917 28.495-37.716 84.952-120.036 84.952-156.917-0.008-46.846-38.111-84.952-84.952-84.952z" />
<glyph unicode="&#xe953;" horiz-adv-x="1055" d="M190.954 23.068h3.879v202.237h-28.045v-202.237h24.166z" />
<glyph unicode="&#xe954;" horiz-adv-x="1055" d="M190.954 255.162h3.879v41.565h-28.045v-41.565h24.166z" />
<glyph unicode="&#xe955;" horiz-adv-x="1055" d="M889.136 333.371h3.879v202.237h-28.045v-202.237h24.166z" />
<glyph unicode="&#xe956;" horiz-adv-x="1055" d="M889.136 565.465h3.879v41.565h-28.045v-41.565h24.166z" />
<glyph unicode="&#xe957;" horiz-adv-x="1056" d="M448 48h240v-32h-240v32z" />
<glyph unicode="&#xe958;" horiz-adv-x="1056" d="M29.335-36.835l3.228-2.362 167.748 229.317-22.154 16.206-167.749-229.317 18.926-13.845z" />
<glyph unicode="&#xe959;" horiz-adv-x="1056" d="M213.653 215.13l3.229-2.362 23.859 32.616-22.154 16.206-23.859-32.616 18.925-13.845z" />
<glyph unicode="&#xe95a;" horiz-adv-x="1056" d="M1015.912 54.357l-3.443-2.035-71.098 120.248 23.627 13.97 71.098-120.248-20.184-11.934z" />
<glyph unicode="&#xe95b;" horiz-adv-x="1056" d="M930.531 198.758l-3.443-2.035-20.566 34.786 23.627 13.97 20.568-34.786-20.186-11.934z" />
<glyph unicode="&#xe95c;" horiz-adv-x="1056" d="M845.792 248.112l-55.168 55.888h-83.552l-80 32h-35.072v208h80c132.336 0 240 107.664 240 240v16h-112c-88.928 0-166.544-48.72-208-120.768v57.968c40.848 5.664 64 33.6 64 78.8 0 52.192-31.168 128-80 128s-80-75.808-80-128c0-45.2 23.152-73.136 64-78.8v-137.968c-41.456 72.048-119.072 120.768-208 120.768h-112v-16c0-132.336 107.664-240 240-240h80v-128h-40l-48-64h-80.24l-80-112h-79.92l-128-176h-23.84v-32h928v32h-6.848l-155.36 264.112zM800 768h79.392c-8.192-107.248-98.080-192-207.392-192h-79.392c8.192 107.248 98.080 192 207.392 192zM528 816c0 43.968 26.016 96 48 96s48-52.032 48-96c0-33.2-14.8-48-48-48s-48 14.8-48 48zM480 496c-109.312 0-199.2 84.752-207.392 192h79.392c109.312 0 199.2-84.752 207.392-192h-79.392zM248.144 128h80.080l80 112h65.136l75.312-75.312 22.624 22.624-70.192 70.192 34.896 46.496h84.928l80-32h76.448l26.144-26.16-64.368-25.744-18.336-55.024 30.352-10.128 13.664 40.976 60.336 24.128 138.864-236.048h-820.608l104.72 144z" />
<glyph unicode="&#xe95d;" horiz-adv-x="1056" d="M80 1088h944v-752h-944v752z" />
<glyph unicode="&#xe95e;" horiz-adv-x="1056" d="M896 48h-32v-32h32v32z" />
<glyph unicode="&#xe95f;" horiz-adv-x="1056" d="M832 48h-32v-32h32v32z" />
<glyph unicode="&#xe960;" horiz-adv-x="1056" d="M768 48h-32v-32h32v32z" />
<glyph unicode="&#xe961;" horiz-adv-x="825" d="M680.502 56.337h-34.31v89.887h52.673v145.331h-572.834v-145.323h52.683v-89.887h-34.32c-71.779 0-130.173-41.387-130.173-92.27v-13.854h796.444v13.854c0 50.873-58.394 92.261-130.165 92.261zM153.183 173.942v89.904h518.531v-89.904h-518.531zM619.041 146.233v-89.887h-413.174v89.887h413.174zM43.872-22.079c10.435 28.605 52.24 50.706 100.524 50.706h536.098c48.284 0 90.088-22.111 100.524-50.706h-737.146z" />
<glyph unicode="&#xe962;" horiz-adv-x="825" d="M129.422 901.689h566.044v-551.822h-566.044v551.822z" />
<glyph unicode="&#xe963;" horiz-adv-x="825" d="M437.554 614.135c60.016-60.016 52.789-160.781-17.802-210.944-2.625-2.644-8.668-2.581-11.57 1.781-2.671 3.56-1.781 9.791 1.779 12.46 61.726 43.017 66.291 132.201 15.131 183.361l-32.932 32.932c-60.016 60.018-52.79 160.789 17.801 210.945 3.561 2.67 9.791 1.78 12.462-1.78s1.779-9.791-1.781-12.461c-61.699-43.008-66.3-132.183-15.131-183.352l32.043-32.942zM528.34 612.355l-35.602 35.602c-35.602 35.602-35.602 94.346 0 129.948 3.551 3.561 3.551 8.902 0 12.462-3.561 3.56-8.9 3.56-12.462 0-42.722-42.724-42.722-112.148 0-154.87l35.602-35.602c35.602-35.602 35.602-94.346 0-129.948-3.551-3.561-3.551-8.902 0-12.462 3.319-3.319 8.75-3.712 12.462 0 42.722 42.724 42.722 112.148 0 154.87zM314.725 647.957c-35.602 35.602-35.602 94.346 0 129.948 3.56 3.561 3.56 8.902 0 12.462s-8.9 3.56-12.46 0c-42.724-42.724-42.724-112.148 0-154.87l35.602-35.602c35.601-35.602 35.601-94.346 0-129.948-3.561-3.561-3.561-8.902 0-12.462 3.319-3.319 8.758-3.712 12.46 0 42.724 42.724 42.724 112.156 0 154.87l-35.602 35.602z" />
<glyph unicode="&#xe964;" horiz-adv-x="825" d="M83.543 944.264l654.222-640.001" />
<glyph unicode="&#xe965;" horiz-adv-x="825" d="M758.153 371.368h3.556v185.384h-25.708v-185.384h22.153z" />
<glyph unicode="&#xe966;" horiz-adv-x="825" d="M758.153 584.121h3.556v38.101h-25.708v-38.101h22.153z" />
<glyph unicode="&#xe967;" horiz-adv-x="825" d="M75.485 143.812h3.556v185.384h-25.708v-185.384h22.152z" />
<glyph unicode="&#xe968;" horiz-adv-x="825" d="M75.485 328.701h3.556v185.384h-25.708v-185.384h22.152z" />
<glyph unicode="&#xe969;" horiz-adv-x="825" d="M75.485 541.454h3.556v38.101h-25.708v-38.101h22.152z" />
<glyph unicode="&#xe96a;" horiz-adv-x="825" d="M75.485 797.454h3.556v38.101h-25.708v-38.101h22.152z" />
<glyph unicode="&#xe96b;" horiz-adv-x="825" d="M75.485 840.12h3.556v38.102h-25.708v-38.102h22.152z" />
<glyph unicode="&#xe96c;" horiz-adv-x="714" d="M364.088 509.372h-20.57v-187.291h20.57v187.291z" />
<glyph unicode="&#xe96d;" horiz-adv-x="714" d="M364.088 291.551h-20.57v-20.52h20.57v20.52z" />
<glyph unicode="&#xe96e;" horiz-adv-x="714" d="M692.091 924.026c0 11.286-9.194 20.458-20.508 20.458h-635.56c-11.313 0-20.508-9.172-20.508-20.458v-53.373c0-11.286 9.195-20.458 20.508-20.458h56.32v-131.020c0-63.12 22.894-124.023 64.466-171.487 39.185-44.774 92.377-74.816 150.568-85.219v-25.015c-58.191-10.423-111.382-40.467-150.568-85.22-41.572-47.483-64.466-108.384-64.466-171.483v-131.041h-56.32c-11.313 0-20.508-9.173-20.508-20.46v-53.374c0-11.286 9.195-20.458 20.508-20.458h635.56c11.314 0 20.508 9.173 20.508 20.458v53.372c0 11.286-9.194 20.458-20.508 20.458h-56.318v131.041c0 63.1-22.894 124.003-64.467 171.484-39.187 44.755-92.377 74.795-150.568 85.22v25.017c58.191 10.403 111.382 40.445 150.568 85.219 41.573 47.464 64.467 108.367 64.467 171.487v131.020h56.318c11.314 0 20.508 9.172 20.508 20.458v53.373zM671.522 29.249l0.061-53.312-635.498-0.061-0.062 53.31 109.653 0.005c0-0.002 0-0.005 0-0.006h416.257c-0.002 0.020-0.006 0.042-0.009 0.059l109.599 0.005zM170.91 49.707c7.516 27.325 21.101 52.624 39.956 74.158 14.851 16.977 32.434 31.047 52.277 41.83 19.81 10.785 41.104 17.869 63.263 21.048 9.134 1.299 18.35 1.956 27.397 1.956s18.261-0.658 27.364-1.953c44.639-6.42 85.686-28.756 115.574-62.883 18.854-21.546 32.439-46.846 39.953-74.156h-365.784zM594.694 719.175c0-58.154-21.084-114.257-59.384-157.985-37.931-43.338-90.075-71.677-146.849-79.844l-8.802-1.272v-60.247l8.802-1.252c56.775-8.164 108.916-36.524 146.849-79.843 38.301-43.728 59.384-99.849 59.384-157.981v-131.041h-36.78c-7.959 32.208-23.507 62.309-45.677 87.648-33.126 37.818-78.626 62.576-128.135 69.7-10.046 1.427-20.174 2.163-30.3 2.163s-20.255-0.734-30.298-2.163c-24.756-3.551-48.508-11.531-70.215-23.349-21.707-11.798-41.368-27.429-57.92-46.352-22.187-25.339-37.725-55.44-45.679-87.648h-36.779v131.041c0 58.132 21.084 114.255 59.385 157.981 37.93 43.318 90.073 71.678 146.846 79.843l8.803 1.252v60.247l-8.803 1.272c-56.773 8.167-108.916 36.506-146.846 79.844-38.301 43.728-59.385 99.831-59.385 157.985v131.020h481.782v-131.020zM594.694 870.715l-558.609-0.062-0.062 53.311 635.499 0.062 0.061-53.311h-76.888z" />
<glyph unicode="&#xe96f;" horiz-adv-x="714" d="M41.31 829.265v-274.6h-2.941c-9.668 0-17.525-7.838-17.525-17.484v-169.249c0-9.644 7.858-17.484 17.525-17.484h2.941v-274.6h20.57v274.601h2.921c9.668 0 17.525 7.838 17.525 17.486v169.247c0 9.644-7.858 17.486-17.525 17.486h-2.921v274.597h-20.57zM61.756 370.97h-20.343v163.176h20.343v-163.176z" />
<glyph unicode="&#xe970;" horiz-adv-x="714" d="M666.297 75.849v274.601h2.942c9.667 0 17.527 7.838 17.527 17.486v169.247c0 9.644-7.857 17.486-17.527 17.486h-2.942v274.597h-20.568v-274.6h-2.922c-9.667 0-17.526-7.838-17.526-17.484v-169.249c0-9.644 7.855-17.484 17.526-17.484h2.922v-274.6h20.568zM645.851 534.146h20.343v-163.178h-20.343v163.178z" />
<glyph unicode="&#xe971;" horiz-adv-x="714" d="M304.718 708.422c13.58 0 25.010-4.101 34.288-12.304 9.278-8.068 13.917-19.363 13.917-33.885s-4.907-25.884-14.724-34.087c-9.681-8.203-21.582-12.304-35.7-12.304-11.43 0-21.515 2.555-30.255 7.664s-15.061 12.64-18.96 22.59l23.8 13.917c3.496-11.295 11.967-16.943 25.414-16.943 7.126 0 12.64 1.68 16.539 5.042 4.034 3.496 6.051 8.203 6.051 14.119 0 5.782-1.95 10.422-5.849 13.917s-9.211 5.244-15.934 5.244h-42.76l5.648 78.46h80.074v-26.019h-54.256l-1.815-25.414h14.522zM419.913 615.843c-17.614 0-31.465 6.656-41.55 19.968-9.95 13.447-14.926 31.263-14.926 53.45s4.976 39.936 14.926 53.248c10.085 13.447 23.935 20.17 41.55 20.17 17.749 0 31.6-6.723 41.55-20.17 9.951-13.312 14.926-31.061 14.926-53.248s-4.974-40.003-14.926-53.45c-9.95-13.312-23.8-19.968-41.55-19.968zM398.533 654.77c4.841-7.799 11.968-11.698 21.38-11.698 9.413 0 16.539 3.967 21.38 11.9 4.976 7.933 7.463 19.363 7.463 34.288 0 15.061-2.487 26.557-7.463 34.49-4.841 7.933-11.967 11.9-21.38 11.9-9.411 0-16.539-3.967-21.38-11.9s-7.261-19.43-7.261-34.49c0-15.061 2.42-26.557 7.261-34.49z" />
</font>
</defs>
</svg>
